<svg width="1205" height="901" viewBox="0 0 1205 901" fill="none" xmlns="http://www.w3.org/2000/svg">
<g clip-path="url(#clip0_8_7556)">
<path d="M1157.87 754.914C1067.16 900.085 875.945 944.227 730.774 853.518L283.059 573.731C137.888 483.063 93.731 291.852 184.44 146.681C275.15 1.5096 466.375 -42.647 611.546 48.007L1059.25 327.795C1204.42 418.532 1248.57 609.743 1157.87 754.914Z" fill="#274D76"/>
<path d="M1169.86 658.748C1160.48 668.983 1134.36 641.157 1113.6 648.927C1092.83 656.698 1094.5 606.377 1113.6 614.979C1132.7 623.58 1157.13 593.69 1169.86 604.327C1182.59 614.965 1155.47 635.021 1169.86 658.748Z" fill="#EC8C92"/>
<path d="M1012.74 619.758C1012.74 619.758 1034.07 576.889 1046.38 580.463C1051.59 581.972 1046.5 587.166 1051.81 588.288C1060.12 590.02 1065.13 568.011 1078.29 569.825C1088.64 571.21 1079.82 586.335 1088.18 588.233C1093.36 589.41 1104.17 581.737 1107.17 586.114C1111.53 592.485 1094.19 612.278 1094.19 612.278L1012.74 619.758Z" fill="#EC8C92"/>
<path d="M1070.41 680.895C1037.97 680.895 987.984 649.924 988.165 639.744C988.262 634.203 994.384 627.929 1002.32 622.029C1020.5 608.622 1042.53 601.438 1065.12 601.543H1090.05C1094.48 601.539 1098.88 602.409 1102.97 604.103C1107.07 605.797 1110.79 608.282 1113.93 611.416C1117.06 614.549 1119.55 618.27 1121.25 622.365C1122.95 626.461 1123.82 630.851 1123.82 635.284C1123.82 664.371 1099.43 680.895 1070.41 680.895Z" fill="#93B4F6"/>
<path d="M1049.72 670.021C1049.72 670.021 1099.87 685.811 1093.92 692.114C1087.96 698.416 1041.66 693.526 1049.72 670.021Z" fill="#EC8C92"/>
<path d="M1030.58 646.213C1028.36 646.216 1026.19 645.56 1024.34 644.329C1022.49 643.098 1021.05 641.346 1020.2 639.297C1019.35 637.247 1019.13 634.991 1019.56 632.813C1019.99 630.636 1021.06 628.636 1022.62 627.065C1024.19 625.495 1026.19 624.425 1028.37 623.991C1030.55 623.557 1032.8 623.778 1034.85 624.627C1036.9 625.476 1038.66 626.914 1039.89 628.759C1041.12 630.604 1041.78 632.774 1041.78 634.994C1041.78 637.967 1040.6 640.818 1038.5 642.922C1036.4 645.026 1033.55 646.209 1030.58 646.213ZM1030.58 626.545C1028.9 626.542 1027.27 627.035 1025.88 627.962C1024.49 628.889 1023.4 630.207 1022.76 631.751C1022.12 633.294 1021.95 634.994 1022.27 636.633C1022.6 638.273 1023.4 639.78 1024.58 640.963C1025.76 642.146 1027.27 642.952 1028.91 643.279C1030.55 643.606 1032.25 643.44 1033.79 642.801C1035.34 642.162 1036.66 641.079 1037.59 639.689C1038.52 638.299 1039.01 636.665 1039.01 634.994C1039.01 632.756 1038.12 630.611 1036.54 629.028C1034.96 627.445 1032.81 626.552 1030.58 626.545Z" fill="white"/>
<path d="M1054.54 667.958C1054.28 667.956 1054.02 667.881 1053.8 667.74C1053.58 667.6 1053.41 667.4 1053.29 667.164C1053.18 666.928 1053.14 666.666 1053.17 666.407C1053.2 666.148 1053.31 665.903 1053.47 665.7C1058.23 659.885 1061.13 652.768 1061.78 645.279C1062.43 637.791 1060.8 630.28 1057.11 623.732C1057.02 623.574 1056.96 623.399 1056.94 623.218C1056.92 623.037 1056.93 622.853 1056.98 622.677C1057.02 622.501 1057.11 622.336 1057.22 622.191C1057.33 622.046 1057.47 621.925 1057.63 621.834C1057.78 621.743 1057.96 621.684 1058.14 621.661C1058.32 621.637 1058.5 621.65 1058.68 621.698C1058.86 621.745 1059.02 621.827 1059.17 621.938C1059.31 622.05 1059.43 622.188 1059.52 622.347C1063.49 629.381 1065.24 637.448 1064.54 645.493C1063.84 653.538 1060.73 661.184 1055.62 667.431C1055.49 667.595 1055.32 667.727 1055.14 667.818C1054.95 667.909 1054.75 667.957 1054.54 667.958Z" fill="black"/>
<path d="M1040.38 669.759C1040.18 669.758 1039.98 669.712 1039.8 669.626C1039.62 669.54 1039.46 669.415 1039.33 669.261C1020.24 646.393 988.594 642.639 988.276 642.598C988.094 642.578 987.918 642.522 987.757 642.434C987.597 642.346 987.455 642.227 987.341 642.084C987.11 641.796 987.002 641.428 987.043 641.06C987.083 640.693 987.268 640.357 987.556 640.126C987.845 639.894 988.213 639.787 988.58 639.828C989.965 639.98 1021.66 643.761 1041.45 667.529C1041.68 667.811 1041.79 668.173 1041.76 668.536C1041.72 668.899 1041.55 669.234 1041.27 669.469C1041.02 669.665 1040.7 669.768 1040.38 669.759Z" fill="black"/>
<path d="M569.342 813.406C562.79 820.553 544.521 801.107 530.005 806.481C515.489 811.855 516.653 776.729 530.005 782.74C543.357 788.752 560.477 767.865 569.342 775.302C578.206 782.74 559.314 796.813 569.342 813.406Z" fill="#EC8C92"/>
<path d="M459.532 786.147C459.532 786.147 474.436 756.174 483.079 758.667C486.708 759.734 483.162 763.349 486.86 764.138C492.636 765.343 496.182 749.955 505.379 751.229C512.609 752.24 506.445 762.767 512.304 764.097C515.919 764.928 523.468 759.554 525.573 762.615C528.62 767.075 516.501 780.912 516.501 780.912L459.532 786.147Z" fill="#EC8C92"/>
<path d="M485.392 821.287C485.392 821.287 520.462 832.368 516.293 836.731C512.124 841.094 479.796 837.714 485.392 821.287Z" fill="#EC8C92"/>
<path d="M499.852 828.877C477.178 828.877 442.232 807.242 442.357 800.122C442.357 796.272 446.706 791.812 452.247 787.657C464.96 778.283 480.358 773.261 496.154 773.335H513.606C519.851 773.335 525.84 775.816 530.256 780.231C534.672 784.647 537.152 790.636 537.152 796.881C537.194 817.284 520.144 828.877 499.852 828.877Z" fill="#F2BDBA"/>
<path d="M471.998 803.849C470.354 803.849 468.748 803.361 467.381 802.448C466.014 801.535 464.949 800.237 464.32 798.718C463.691 797.2 463.527 795.529 463.847 793.917C464.168 792.305 464.959 790.824 466.122 789.662C467.284 788.499 468.765 787.708 470.377 787.387C471.989 787.067 473.66 787.231 475.178 787.86C476.697 788.489 477.995 789.554 478.908 790.921C479.821 792.288 480.309 793.894 480.309 795.538C480.309 797.742 479.433 799.856 477.874 801.414C476.316 802.973 474.202 803.849 471.998 803.849ZM471.998 790.095C470.902 790.095 469.831 790.42 468.92 791.028C468.009 791.637 467.299 792.502 466.879 793.515C466.46 794.527 466.35 795.641 466.564 796.716C466.778 797.791 467.306 798.778 468.08 799.553C468.855 800.327 469.842 800.855 470.917 801.069C471.992 801.283 473.106 801.173 474.118 800.754C475.131 800.334 475.996 799.624 476.605 798.713C477.213 797.802 477.538 796.731 477.538 795.635C477.538 794.907 477.395 794.187 477.117 793.515C476.838 792.843 476.43 792.232 475.916 791.717C475.401 791.203 474.79 790.795 474.118 790.516C473.446 790.238 472.726 790.095 471.998 790.095Z" fill="white"/>
<path d="M488.757 820.262C488.438 820.26 488.13 820.147 487.885 819.944C487.743 819.828 487.626 819.686 487.54 819.526C487.454 819.365 487.4 819.189 487.382 819.007C487.364 818.826 487.382 818.643 487.435 818.468C487.488 818.294 487.575 818.131 487.691 817.991C490.962 813.989 492.951 809.094 493.398 803.945C493.845 798.796 492.73 793.631 490.198 789.125C490.107 788.967 490.048 788.793 490.024 788.612C490.001 788.431 490.013 788.247 490.061 788.07C490.108 787.894 490.19 787.729 490.302 787.585C490.413 787.44 490.552 787.319 490.71 787.228C490.868 787.137 491.043 787.078 491.224 787.055C491.405 787.031 491.589 787.043 491.765 787.091C491.941 787.139 492.106 787.22 492.251 787.332C492.395 787.443 492.517 787.582 492.608 787.74C495.415 792.732 496.653 798.453 496.158 804.159C495.664 809.864 493.461 815.288 489.837 819.722C489.71 819.888 489.546 820.022 489.359 820.116C489.172 820.21 488.966 820.259 488.757 820.262Z" fill="black"/>
<path d="M478.868 821.508C478.665 821.509 478.464 821.464 478.279 821.378C478.095 821.292 477.932 821.166 477.802 821.01C464.56 805.151 442.607 802.547 442.385 802.519C442.022 802.477 441.69 802.294 441.462 802.008C441.233 801.723 441.127 801.359 441.166 800.995C441.185 800.814 441.24 800.639 441.326 800.479C441.413 800.319 441.531 800.178 441.672 800.063C441.814 799.949 441.977 799.863 442.151 799.812C442.326 799.76 442.509 799.743 442.69 799.763C443.645 799.873 465.987 802.533 479.935 819.237C480.051 819.377 480.139 819.538 480.193 819.712C480.247 819.886 480.267 820.069 480.25 820.251C480.233 820.432 480.181 820.609 480.096 820.77C480.011 820.931 479.895 821.074 479.755 821.19C479.505 821.396 479.192 821.509 478.868 821.508Z" fill="black"/>
<path d="M2.70276 500.709C8.38162 508.742 24.1993 486.858 36.7759 492.994C49.3525 499.13 48.3414 459.572 36.7759 466.331C25.2104 473.09 10.4592 449.613 2.70276 458.02C-5.05372 466.428 11.415 482.066 2.70276 500.709Z" fill="#274D76"/>
<path d="M110.989 464.198C110.989 464.198 95.2819 423.255 86.1957 426.662C82.3729 428.047 86.1126 433.061 82.2067 434.128C76.1261 435.79 72.3865 414.737 62.6909 416.509C55.0867 417.895 61.5689 432.272 55.4053 434.086C51.5963 435.208 43.632 427.867 41.4297 432.064C38.2163 438.145 50.973 456.996 50.973 456.996L110.989 464.198Z" fill="#274D76"/>
<path d="M68.508 522.594C92.4007 522.594 129.216 493.022 129.092 483.299C129.092 478.049 124.507 472.01 118.662 466.359C105.324 453.478 89.0211 446.802 72.4001 446.802H54.0893C40.3631 446.802 29.1577 461.234 29.1577 479.033C29.1577 506.748 47.1638 522.594 68.508 522.594Z" fill="#93B4F6"/>
<path d="M83.7441 512.219C83.7441 512.219 46.8039 527.288 51.1946 533.327C55.5853 539.366 89.6446 534.657 83.7441 512.219Z" fill="#274D76"/>
<path d="M97.8581 488.229C93.1072 488.229 89.229 483.395 89.229 477.453C89.229 471.511 93.1072 466.677 97.8581 466.677C102.609 466.677 106.487 471.511 106.487 477.453C106.487 483.395 102.567 488.229 97.8581 488.229ZM97.8581 469.447C94.6308 469.447 91.9992 473.034 91.9992 477.453C91.9992 481.871 94.6308 485.459 97.8581 485.459C101.085 485.459 103.717 481.857 103.717 477.453C103.717 473.048 101.085 469.447 97.8581 469.447Z" fill="white"/>
<path d="M80.1982 510.308C79.9628 510.308 79.7312 510.249 79.5252 510.135C79.3192 510.021 79.1456 509.857 79.0209 509.657C74.5933 502.383 72.2858 494.016 72.3586 485.501C72.3283 479.071 73.6151 472.702 76.1399 466.788C76.206 466.612 76.3073 466.452 76.4376 466.316C76.5679 466.181 76.7244 466.073 76.8976 466C77.0708 465.927 77.2571 465.889 77.4451 465.891C77.6332 465.892 77.819 465.931 77.9913 466.007C78.1636 466.082 78.3187 466.192 78.4473 466.329C78.5758 466.466 78.6751 466.628 78.739 466.805C78.8029 466.982 78.8302 467.17 78.8192 467.357C78.8081 467.545 78.7589 467.729 78.6746 467.897C76.3038 473.461 75.0971 479.452 75.1288 485.501C75.056 493.492 77.2146 501.344 81.3617 508.175C81.459 508.329 81.5251 508.5 81.5562 508.679C81.5873 508.858 81.5828 509.042 81.5429 509.22C81.503 509.397 81.4286 509.565 81.3238 509.714C81.219 509.862 81.086 509.989 80.9323 510.086C80.7133 510.228 80.4588 510.305 80.1982 510.308Z" fill="black"/>
<path d="M90.6143 512.011C90.3499 512.004 90.092 511.928 89.8664 511.79C89.7119 511.691 89.5784 511.563 89.4738 511.413C89.3692 511.262 89.2954 511.093 89.2568 510.914C89.2181 510.735 89.2154 510.55 89.2487 510.37C89.282 510.19 89.3508 510.018 89.4509 509.864C93.8734 503.03 99.6271 497.157 106.369 492.595C113.11 488.034 120.702 484.876 128.69 483.312C129.058 483.259 129.431 483.354 129.729 483.576C130.026 483.798 130.223 484.129 130.276 484.497C130.33 484.864 130.235 485.237 130.013 485.535C129.791 485.832 129.459 486.029 129.092 486.083C121.514 487.645 114.318 490.685 107.916 495.029C101.513 499.374 96.0294 504.937 91.7778 511.402C91.6495 511.592 91.4759 511.747 91.2729 511.853C91.0698 511.96 90.8435 512.014 90.6143 512.011Z" fill="black"/>
<path d="M374.169 722.364C372.718 721.433 371.097 720.798 369.401 720.494C367.704 720.19 365.964 720.224 364.28 720.593C362.596 720.963 361.001 721.66 359.587 722.646C358.173 723.632 356.967 724.887 356.038 726.339L348.78 737.78C347.601 739.613 345.83 740.988 343.762 741.679C341.695 742.369 339.453 742.332 337.409 741.575L334.943 740.647H334.833C331.662 739.471 328.991 737.242 327.266 734.332C325.542 731.423 324.868 728.01 325.359 724.663L326.411 717.433C326.71 715.542 326.324 713.607 325.324 711.974C324.324 710.342 322.774 709.12 320.954 708.527C319.869 708.196 318.725 708.103 317.601 708.255C316.477 708.408 315.399 708.801 314.441 709.409C313.484 710.017 312.669 710.824 312.052 711.777C311.436 712.729 311.033 713.803 310.871 714.926L309.776 722.406C308.182 732.698 303.48 742.258 296.299 749.803C295.256 750.922 294.284 752.106 293.391 753.348C292.551 754.519 291.357 755.388 289.985 755.827C288.613 756.266 287.136 756.251 285.773 755.785C284.41 755.319 283.233 754.426 282.418 753.238C281.602 752.051 281.19 750.633 281.244 749.193L281.548 738.694C281.605 737.244 281.984 735.825 282.656 734.539L295.621 710.009C298.349 704.859 299.776 699.119 299.776 693.291V663.179C299.776 662.694 299.776 662.224 299.776 661.794C299.516 656.741 300.558 651.706 302.801 647.171C305.044 642.636 308.414 638.753 312.588 635.893L321.453 629.923C323.058 628.874 324.235 627.284 324.768 625.441C325.302 623.599 325.157 621.627 324.361 619.881C323.877 618.858 323.177 617.952 322.309 617.225C321.442 616.498 320.427 615.967 319.336 615.668C318.244 615.369 317.1 615.31 315.983 615.495C314.867 615.679 313.803 616.103 312.865 616.737L295.593 628.358C294.528 629.063 293.334 629.551 292.08 629.794C290.826 630.036 289.537 630.028 288.286 629.771C287.035 629.514 285.847 629.012 284.791 628.294C283.734 627.576 282.83 626.656 282.13 625.588C282.13 625.588 269.069 612 265.218 607.042C260.481 600.933 254.608 595.656 248.472 600.726C243.278 605.006 247.378 614.272 250.855 620.034C256.478 629.328 271.991 657.985 271.991 657.985C273.007 659.538 273.551 661.352 273.556 663.207V693.222C273.554 694.776 273.174 696.307 272.448 697.682L259.47 722.226C259.207 722.754 258.783 723.185 258.258 723.455C257.734 723.726 257.137 723.821 256.554 723.729C255.971 723.636 255.433 723.36 255.018 722.94C254.603 722.52 254.334 721.978 254.248 721.394L249.816 694.108C249.336 691.131 248.479 688.227 247.267 685.465C245.948 682.507 245.656 679.193 246.439 676.05C247.223 672.907 249.035 670.117 251.589 668.124L253.265 666.822C254.217 666.083 254.988 665.136 255.519 664.053C256.05 662.971 256.326 661.781 256.326 660.575V641.766C256.355 639.727 255.611 637.753 254.244 636.239C252.877 634.726 250.989 633.786 248.957 633.608C247.889 633.549 246.82 633.709 245.816 634.077C244.811 634.445 243.892 635.014 243.115 635.749C242.337 636.484 241.717 637.369 241.293 638.351C240.869 639.333 240.649 640.391 240.647 641.461V656.697C240.115 657.11 239.497 657.397 238.838 657.535C238.179 657.674 237.498 657.661 236.845 657.496C236.192 657.332 235.585 657.021 235.07 656.588C234.555 656.154 234.146 655.609 233.874 654.993L230.411 647.154C229.971 646.178 229.704 645.133 229.621 644.065L227.876 622.167C227.18 613.208 223.117 604.844 216.505 598.759C216.505 598.759 202.654 585.642 197.778 581.473C187.529 572.595 175.271 582.858 182.985 594.521C186.891 600.407 198.706 618.067 198.706 618.067C200.461 619.698 201.543 621.926 201.74 624.314L203.485 646.184C203.806 650.199 204.799 654.132 206.421 657.819C206.421 658.171 206.34 658.518 206.183 658.834C206.027 659.149 205.8 659.424 205.52 659.638C205.239 659.851 204.914 659.996 204.568 660.063C204.222 660.129 203.866 660.115 203.526 660.021L195.853 657.874C194.819 657.584 193.736 657.508 192.672 657.653C191.608 657.797 190.585 658.159 189.666 658.714C188.746 659.27 187.951 660.008 187.329 660.883C186.706 661.758 186.27 662.752 186.047 663.803C185.667 665.807 186.059 667.881 187.146 669.608C188.233 671.335 189.934 672.586 191.905 673.11L202.529 676.074C206.8 677.275 210.754 679.406 214.106 682.312C217.458 685.219 220.127 688.831 221.92 692.889L223.305 695.992C223.632 696.736 223.865 697.518 223.998 698.319L224.178 699.455C224.304 700.214 224.19 700.994 223.85 701.685C223.51 702.376 222.963 702.943 222.284 703.306C221.606 703.67 220.83 703.812 220.067 703.713C219.304 703.613 218.591 703.277 218.028 702.751L217.959 702.682L178.969 674.537C177.149 672.882 176.05 670.58 175.908 668.124L174.813 642.943C174.121 632.001 150.519 622.472 144.909 619.937C127.804 612.222 124.133 625.546 130.186 629.632L152.735 644.979C153.94 645.797 154.941 646.88 155.662 648.146C156.382 649.411 156.802 650.825 156.89 652.279L157.985 669.772C158.124 671.906 158.448 674.024 158.954 676.102H158.83L131.654 672.681C129.12 672.37 126.75 671.264 124.883 669.522C123.017 667.781 121.751 665.492 121.266 662.985C120.075 656.988 119.188 653.401 116.875 651.503C115.005 649.966 105.795 650.616 104.714 664.938C104.548 667.251 101.722 672.986 95.725 672.847C92.9548 672.847 86.8605 675.977 86.2095 682.543C85.9683 685.103 86.6737 687.663 88.1923 689.738C89.711 691.813 91.9376 693.259 94.4507 693.804C94.4507 693.804 104.756 695.826 110.213 696.574C112.018 696.79 113.706 697.58 115.03 698.826C116.354 700.072 117.243 701.71 117.568 703.499C118.524 708.901 120.033 716.311 121.723 719.317C122.79 721.311 125.352 721.782 127.444 721.782C129.453 721.787 131.387 721.018 132.845 719.635C134.494 718.07 136.724 713.015 138.496 708.555C138.891 707.534 139.495 706.607 140.27 705.834C141.046 705.061 141.974 704.46 142.996 704.068C144.018 703.677 145.111 703.504 146.204 703.561C147.297 703.618 148.366 703.904 149.342 704.399C158.289 708.998 166.475 714.635 170.838 723.957C171.88 726.187 172.014 728.735 171.212 731.062L167.334 742.406V742.517C166.298 745.567 164.237 748.164 161.503 749.866C158.768 751.568 155.528 752.27 152.333 751.852L140.81 750.343C139.743 750.204 138.66 750.286 137.626 750.582C136.593 750.878 135.631 751.384 134.8 752.066C133.969 752.749 133.287 753.595 132.796 754.552C132.305 755.508 132.016 756.555 131.945 757.628C131.869 759.655 132.559 761.636 133.879 763.177C135.198 764.717 137.05 765.703 139.064 765.939L149.882 767.324C158.192 768.418 169.869 774.249 175.991 780.053C181.236 784.757 187.712 787.87 194.662 789.028C196.25 789.317 197.737 790.009 198.981 791.038C200.225 792.066 201.184 793.396 201.767 794.901L213.914 825.788L228.984 825.415C240.854 823.157 240.203 802.367 242.004 797.45C244.774 790.026 255.495 781.535 259.276 779.291C274.844 770.039 304.984 782.061 304.984 782.061L314.804 768.363C316.022 766.659 317.769 765.405 319.773 764.797C321.776 764.188 323.925 764.258 325.885 764.997L328.364 765.925C336.022 768.753 344.415 768.887 352.159 766.307C359.904 763.726 366.539 758.584 370.97 751.728L378.2 740.55C379.136 739.094 379.775 737.466 380.08 735.761C380.384 734.056 380.348 732.308 379.973 730.617C379.598 728.927 378.893 727.327 377.896 725.91C376.9 724.494 375.633 723.288 374.169 722.364Z" fill="#EC8C92"/>
<path d="M388.796 899.004L385.125 897.065C385.732 895.761 386.038 894.337 386.022 892.899C386.005 891.461 385.665 890.044 385.028 888.755C381.69 880.749 370.873 873.353 355.332 868.491L354.958 868.366C348.033 866.206 343.157 864.211 341.772 861.538L332.645 843.961C329.306 837.52 321.564 833.365 312.99 833.365C310.894 833.448 308.822 832.897 307.043 831.786C305.264 830.674 303.862 829.052 303.017 827.132C302.451 825.66 301.565 824.332 300.422 823.244C299.28 822.156 297.909 821.337 296.411 820.844C293.985 820.084 291.425 819.851 288.903 820.162C286.38 820.473 283.953 821.319 281.784 822.645C280.254 823.59 278.779 824.621 277.366 825.733C272.836 829.127 267.185 833.365 259.36 833.365L256.243 833.531C247.573 833.531 241.977 837.091 237.988 845.069L228.832 863.435C223.929 873.242 226.173 884.336 234.65 892.384L231.796 895.403C221.935 886.04 219.331 873.076 225.106 861.579L234.276 843.213C238.916 833.905 246.063 829.362 256.132 829.362L259.235 829.196C265.8 829.196 270.62 825.581 274.873 822.395C276.419 821.187 278.033 820.068 279.707 819.043C282.408 817.418 285.428 816.392 288.561 816.036C291.694 815.68 294.867 816.002 297.865 816.979C299.932 817.672 301.82 818.814 303.393 820.322C304.967 821.831 306.186 823.669 306.965 825.706C307.52 826.827 308.391 827.762 309.473 828.392C310.554 829.022 311.796 829.321 313.046 829.251C323.171 829.251 332.34 834.293 336.384 842.091L345.443 859.668C345.761 860.305 347.603 861.759 356.191 864.446L356.565 864.571C379.447 871.732 386.621 881.829 388.851 887.203C389.717 889.052 390.162 891.069 390.152 893.11C390.143 895.151 389.679 897.164 388.796 899.004Z" fill="#93B4F6"/>
<path d="M216.74 822.852C215.355 818.794 215.868 814.265 218.305 809.361C219.066 806.045 219.202 802.616 218.707 799.25L206.449 789.25C203.667 786.994 201.519 784.054 200.216 780.718L193.914 764.568C193.776 764.221 193.651 763.875 193.54 763.515C192.586 760.887 190.949 758.561 188.797 756.776C186.645 754.991 184.055 753.813 181.296 753.362L175.326 752.213C174 751.969 172.8 751.272 171.931 750.241C171.062 749.21 170.578 747.91 170.562 746.562C170.613 745.715 170.845 744.889 171.241 744.138C171.638 743.388 172.19 742.732 172.861 742.212C173.563 741.656 174.376 741.257 175.246 741.042C176.116 740.827 177.022 740.801 177.902 740.966L190.285 743.348C191.543 743.593 192.847 743.354 193.936 742.678C195.025 742.003 195.818 740.941 196.158 739.705L196.227 739.498C196.227 739.401 200.909 729.276 202.058 725.841C202.862 723.417 205.313 716.062 211.754 717.946C216.145 719.22 214.829 724.871 213.873 728.943C213.735 729.539 213.596 730.121 213.485 730.647C212.447 735.661 209.607 745.883 208.43 750.038C208.187 750.856 208.187 751.727 208.43 752.545C210.78 759.896 213.755 767.032 217.322 773.875V774.014C217.584 774.668 218.008 775.245 218.555 775.69L231.187 785.981C231.293 786.054 231.418 786.093 231.547 786.093C231.675 786.093 231.801 786.054 231.907 785.981C232.007 785.93 232.089 785.85 232.141 785.751C232.193 785.651 232.213 785.538 232.198 785.427L229.04 769.762C228.674 767.939 228.553 766.076 228.68 764.221C228.774 762.601 228.295 760.999 227.328 759.695C226.361 758.391 224.967 757.469 223.389 757.088L222.156 756.77C221.294 756.552 220.496 756.133 219.827 755.549C219.158 754.964 218.636 754.229 218.305 753.404L214.455 743.32C213.963 742.046 213.932 740.64 214.367 739.345C214.802 738.05 215.676 736.948 216.837 736.229C217.349 735.855 217.94 735.603 218.564 735.493C219.188 735.382 219.829 735.416 220.438 735.592C222.225 736.187 223.209 738.126 223.707 739.539L226.768 747.379C227.367 747.432 227.968 747.327 228.514 747.074C229.58 746.645 230.051 746.077 230.079 745.911L230.508 739.899C230.534 739.432 230.483 738.964 230.356 738.514L228.61 732.392C227.079 727.074 227.685 721.368 230.3 716.491C230.945 714.706 231.766 712.989 232.752 711.367C235.328 706.865 239.58 706.062 242.447 707.211C244.899 708.195 247.323 711.062 246.104 715.896C245.952 716.491 245.73 717.129 245.509 717.821C244.234 721.547 242.323 727.198 248.667 739.775C248.667 739.913 248.764 739.941 248.819 739.955C248.866 739.978 248.918 739.99 248.971 739.99C249.024 739.99 249.076 739.978 249.124 739.955L253.099 737.074C253.835 736.535 254.68 736.164 255.575 735.987C256.47 735.81 257.393 735.831 258.279 736.049C259.084 736.238 259.836 736.605 260.481 737.122C261.126 737.64 261.646 738.295 262.005 739.041C262.527 740.276 262.604 741.654 262.222 742.94C261.841 744.226 261.025 745.34 259.913 746.091L254.373 750.08C252.325 751.521 250.619 753.394 249.374 755.568C248.13 757.741 247.377 760.161 247.171 762.656L247.032 764.623C246.977 764.99 246.977 765.364 247.032 765.731L247.157 766.382C247.315 767.002 247.628 767.571 248.066 768.036C248.505 768.501 249.055 768.847 249.664 769.042C253.39 770.274 260.19 767.504 268.335 761.424C269.106 760.86 270.009 760.504 270.958 760.393C271.906 760.281 272.868 760.416 273.749 760.785C274.63 761.155 275.4 761.746 275.985 762.501C276.57 763.256 276.95 764.149 277.089 765.094C277.352 767.144 277.546 769.485 277.67 772.019L275.413 772.13C275.288 769.651 275.108 767.379 274.845 765.385C274.777 764.828 274.563 764.299 274.224 763.852C273.886 763.404 273.436 763.054 272.919 762.836C272.394 762.612 271.819 762.53 271.252 762.601C270.685 762.672 270.146 762.891 269.692 763.238C260.814 769.859 253.445 772.684 248.916 771.175C247.95 770.856 247.08 770.299 246.385 769.556C245.69 768.813 245.194 767.908 244.941 766.922L244.788 766.188C244.676 765.623 244.638 765.046 244.677 764.471L244.816 762.49C245.051 759.666 245.901 756.927 247.308 754.467C248.715 752.007 250.645 749.885 252.96 748.251L258.501 744.262C259.201 743.815 259.724 743.137 259.977 742.345C260.23 741.553 260.197 740.698 259.886 739.927C259.668 739.477 259.352 739.082 258.962 738.77C258.571 738.458 258.115 738.238 257.628 738.126C257.061 737.989 256.471 737.978 255.899 738.093C255.328 738.208 254.788 738.446 254.318 738.791L250.342 741.672C250.022 741.907 249.651 742.064 249.259 742.131C248.867 742.198 248.466 742.174 248.085 742.06C247.734 741.964 247.409 741.79 247.135 741.55C246.862 741.31 246.646 741.011 246.506 740.675C239.788 727.35 241.88 721.173 243.265 717.129C243.486 716.505 243.68 715.937 243.819 715.383C244.677 711.962 243.195 710.023 241.506 709.344C239.525 708.541 236.519 709.206 234.58 712.53C233.666 714.034 232.905 715.625 232.309 717.281L232.226 717.502C229.838 721.879 229.275 727.021 230.66 731.81L232.35 737.849C232.561 738.573 232.64 739.328 232.586 740.079L232.156 746.077C232.073 747.296 230.979 748.445 229.234 749.166C228.583 749.443 226.325 750.232 224.954 749.027L224.746 748.847L221.436 740.37C220.702 738.473 220.051 737.891 219.552 737.739C219.256 737.686 218.952 737.697 218.661 737.771C218.37 737.845 218.097 737.981 217.862 738.168C217.148 738.607 216.61 739.282 216.341 740.077C216.073 740.872 216.092 741.735 216.394 742.517L220.328 752.614C220.527 753.107 220.84 753.545 221.243 753.892C221.645 754.239 222.124 754.485 222.641 754.609L223.874 754.928C225.96 755.436 227.8 756.665 229.067 758.399C230.335 760.133 230.948 762.259 230.799 764.401C230.678 766.07 230.78 767.747 231.104 769.388L234.276 785.053C234.383 785.626 234.307 786.218 234.058 786.746C233.809 787.273 233.401 787.708 232.89 787.99C232.382 788.303 231.789 788.451 231.193 788.411C230.597 788.371 230.028 788.147 229.566 787.768L216.962 777.491C216.124 776.815 215.471 775.938 215.064 774.942C211.434 767.991 208.412 760.738 206.034 753.265C205.659 752.028 205.659 750.708 206.034 749.47C207.197 745.315 210.036 735.176 211.061 730.231C211.172 729.677 211.311 729.096 211.449 728.472C212.433 724.317 213.056 720.785 210.909 720.162C207.848 719.275 205.77 721.201 203.984 726.602C202.848 730.01 198.623 739.304 198.111 740.453C197.61 742.225 196.463 743.744 194.896 744.711C193.329 745.678 191.456 746.022 189.648 745.675L177.265 743.293C176.701 743.192 176.122 743.212 175.566 743.35C175.01 743.488 174.489 743.743 174.038 744.096C173.484 744.479 173.06 745.023 172.823 745.653C172.586 746.284 172.547 746.971 172.711 747.625C172.875 748.278 173.235 748.866 173.742 749.309C174.248 749.753 174.879 750.031 175.548 750.107L181.504 751.257C184.661 751.785 187.62 753.146 190.076 755.198C192.533 757.25 194.398 759.92 195.479 762.933C195.576 763.238 195.687 763.557 195.812 763.861L202.294 779.901C203.46 782.868 205.367 785.486 207.834 787.505L220.785 798.045V798.475C221.422 802.328 221.281 806.27 220.369 810.068L220.286 810.276C218.098 814.639 217.585 818.586 218.79 822.118L216.74 822.852Z" fill="white"/>
<path d="M170.16 887.826C168.885 872.743 179.758 844.127 191.698 831.135C196.158 826.273 200.507 823.808 204.607 823.808H225.84C228.772 823.786 231.578 822.612 233.651 820.538C235.725 818.465 236.899 815.659 236.921 812.727C236.92 806.492 238.389 800.345 241.21 794.784C244.031 789.224 248.124 784.408 253.156 780.726C258.189 777.045 264.018 774.603 270.172 773.598C276.325 772.592 282.629 773.053 288.571 774.942L304.416 779.983C312.192 782.399 320.217 783.928 328.336 784.54C394.557 789.915 422.522 825.054 428.575 844.972L432.024 856.246L428.049 857.465L424.6 846.177C418.838 827.27 391.995 793.876 327.99 788.682C319.567 788.019 311.245 786.407 303.183 783.876L287.338 778.848C282.019 777.157 276.376 776.745 270.868 777.645C265.36 778.545 260.142 780.731 255.637 784.027C251.133 787.322 247.469 791.633 244.944 796.611C242.419 801.588 241.103 807.09 241.104 812.672C241.082 816.706 239.47 820.568 236.617 823.421C233.764 826.273 229.902 827.886 225.868 827.908H204.607C201.753 827.908 198.346 829.985 194.759 833.891C183.678 845.983 173.124 873.505 174.301 887.425L170.16 887.826Z" fill="#274D76"/>
<path d="M803.948 493.063V490.293H787.826C785.185 490.289 782.654 489.239 780.788 487.372C778.921 485.505 777.87 482.974 777.867 480.334V431.676H736.494V434.446C736.494 435.526 736.203 542.815 736.494 571.708V578.55L741.203 573.592C756.259 557.746 774.833 557.539 792.784 557.345C795.554 557.345 798.463 557.345 801.247 557.178L803.879 557.095V554.45C804.239 530.668 803.948 493.437 803.948 493.063ZM801.178 554.45C780.845 555.156 757.575 552.428 739.223 571.722C738.932 542.51 739.223 434.501 739.223 434.501H775.069V480.362C775.069 482.033 775.398 483.688 776.038 485.233C776.677 486.777 777.615 488.18 778.797 489.362C779.979 490.544 781.382 491.482 782.927 492.122C784.471 492.761 786.126 493.091 787.798 493.091H801.178C801.178 493.091 801.469 530.377 801.178 554.45Z" fill="#74BAAB"/>
<path d="M830.334 423.947C832.245 416.232 834.586 406.495 837.107 395.775C838.719 388.899 842.606 382.77 848.136 378.378C853.666 373.986 860.517 371.59 867.579 371.577H913.134C921.748 371.571 930.138 368.84 937.105 363.775C944.071 358.709 949.256 351.569 951.917 343.377C950.878 343.377 949.825 343.446 948.703 343.446C920.683 343.446 920.683 328.432 892.676 328.432C864.67 328.432 864.739 343.446 836.664 343.446C808.588 343.446 808.657 328.432 780.637 328.432C752.617 328.432 752.63 343.446 724.61 343.446C696.59 343.446 696.59 328.432 668.583 328.432C640.577 328.432 640.563 343.446 612.557 343.446C584.55 343.446 584.578 328.432 556.585 328.432C528.593 328.432 528.565 343.446 500.558 343.446C472.552 343.446 472.538 328.432 444.532 328.432C416.525 328.432 416.525 343.446 388.505 343.446C360.485 343.446 360.498 328.432 332.492 328.432C304.486 328.432 304.486 343.446 276.465 343.446C269.498 343.633 262.568 342.364 256.118 339.72C254.606 345.48 253.842 351.411 253.847 357.366C253.847 503.645 394.959 618.483 541.252 618.483H645.605C678.666 618.483 710.373 605.349 733.751 581.971C757.129 558.593 770.263 526.886 770.263 493.825C770.263 473.769 788.269 461.552 806.566 455.638C826.192 449.308 825.846 441.953 830.334 423.947Z" fill="#74BAAB"/>
<path d="M562.417 62.8965C547.535 62.8965 533.263 68.8081 522.741 79.3307C512.218 89.8533 506.307 104.125 506.307 119.006V174.659H543.843V119.006C543.846 114.081 545.804 109.359 549.287 105.877C552.769 102.394 557.492 100.436 562.417 100.432C566.457 100.432 570.333 98.8271 573.19 95.9698C576.047 93.1125 577.652 89.2372 577.652 85.1964V78.0632C577.634 74.0344 576.021 70.1768 573.166 67.3345C570.31 64.4922 566.445 62.8964 562.417 62.8965Z" fill="#FFF3A1"/>
<path d="M276.451 343.445C304.471 343.445 304.472 328.431 332.478 328.431C360.484 328.431 360.498 343.445 388.505 343.445C416.511 343.445 416.525 328.431 444.532 328.431C472.538 328.431 472.538 343.445 500.558 343.445C528.579 343.445 528.565 328.431 556.585 328.431C584.605 328.431 584.578 343.445 612.612 343.445C640.646 343.445 640.618 328.431 668.639 328.431C696.659 328.431 696.645 343.445 724.665 343.445C752.686 343.445 752.686 328.431 780.692 328.431C808.698 328.431 808.712 343.445 836.719 343.445C864.725 343.445 864.739 328.431 892.759 328.431C920.78 328.431 920.766 343.445 948.786 343.445C949.908 343.445 950.961 343.445 952 343.376C953.321 339.31 953.994 335.061 953.994 330.786V233.746C953.994 229.007 952.126 224.458 948.794 221.087C945.462 217.716 940.935 215.795 936.196 215.74C922.236 215.688 908.538 219.523 896.634 226.816C884.731 234.108 875.092 244.57 868.797 257.03L864.795 264.98C861.252 271.971 855.842 277.843 849.165 281.946C842.488 286.049 834.805 288.221 826.968 288.222H674.331C671.383 288.222 668.463 287.641 665.739 286.513C663.015 285.385 660.54 283.731 658.455 281.646C656.37 279.561 654.716 277.086 653.588 274.362C652.46 271.638 651.879 268.718 651.879 265.77V257.847C651.879 224.037 640.203 197.984 601.6 180.905C584.888 173.746 567.294 168.85 549.286 166.348C509.492 160.642 471.125 164.367 471.125 204.563V260.714C471.122 268.011 468.22 275.008 463.059 280.166C457.898 285.324 450.9 288.222 443.603 288.222H322.962C307.697 288.223 292.861 293.275 280.768 302.591C268.674 311.906 260.002 324.96 256.104 339.719C262.554 342.363 269.484 343.632 276.451 343.445Z" fill="#FFF3A1"/>
<path d="M561.752 96.3598C558.247 96.3525 554.888 94.9561 552.411 92.4766C549.935 89.9971 548.542 86.6369 548.538 83.1322V79.9881C548.649 76.5558 550.091 73.3013 552.558 70.9127C555.025 68.524 558.325 67.1885 561.759 67.1885C565.193 67.1885 568.492 68.524 570.96 70.9127C573.427 73.3013 574.868 76.5558 574.979 79.9881V83.1322C574.976 86.6393 573.581 90.0016 571.101 92.4815C568.621 94.9614 565.259 96.3562 561.752 96.3598ZM561.752 69.5445C558.983 69.5482 556.329 70.6497 554.371 72.6074C552.413 74.5652 551.312 77.2194 551.308 79.9881V83.1322C551.257 84.5366 551.49 85.9369 551.992 87.2494C552.494 88.562 553.255 89.7599 554.231 90.7715C555.206 91.7831 556.376 92.5877 557.669 93.1373C558.963 93.6869 560.353 93.9702 561.759 93.9702C563.164 93.9702 564.555 93.6869 565.848 93.1373C567.142 92.5877 568.311 91.7831 569.287 90.7715C570.262 89.7599 571.024 88.562 571.526 87.2494C572.028 85.9369 572.26 84.5366 572.209 83.1322V79.9881C572.206 77.217 571.102 74.5607 569.141 72.6025C567.181 70.6444 564.523 69.5445 561.752 69.5445Z" fill="#274D76"/>
<path d="M844.739 370.566C844.633 370.58 844.526 370.58 844.42 370.566C822.633 364.887 809.641 348.959 809.641 327.961V324.29C809.617 317.389 811.221 310.579 814.322 304.414C817.064 298.981 821.127 294.323 826.137 290.868C826.411 290.714 826.732 290.669 827.037 290.742C827.342 290.814 827.609 290.999 827.784 291.26C827.959 291.52 828.029 291.837 827.98 292.147C827.932 292.457 827.768 292.737 827.522 292.932C822.858 296.145 819.076 300.48 816.525 305.536C813.603 311.355 812.089 317.779 812.106 324.29V327.961C812.106 348.045 824.101 362.685 845.03 368.128C845.315 368.215 845.56 368.4 845.722 368.65C845.884 368.901 845.952 369.2 845.913 369.496C845.875 369.791 845.733 370.064 845.513 370.265C845.293 370.466 845.009 370.582 844.711 370.594L844.739 370.566Z" fill="black"/>
<path d="M943.897 276.116H909.644C902.578 276.124 895.804 278.934 890.808 283.93C885.812 288.926 883.002 295.7 882.995 302.765V360.177C882.995 360.508 883.126 360.825 883.36 361.059C883.594 361.292 883.911 361.424 884.241 361.424C884.572 361.424 884.889 361.292 885.123 361.059C885.357 360.825 885.488 360.508 885.488 360.177V302.765C885.499 296.363 888.048 290.227 892.576 285.702C897.104 281.176 903.242 278.631 909.644 278.623H943.897C944.073 278.642 944.25 278.623 944.418 278.569C944.586 278.514 944.741 278.425 944.872 278.307C945.004 278.188 945.108 278.044 945.18 277.882C945.252 277.721 945.289 277.546 945.289 277.37C945.289 277.193 945.252 277.018 945.18 276.857C945.108 276.696 945.004 276.551 944.872 276.433C944.741 276.315 944.586 276.226 944.418 276.171C944.25 276.116 944.073 276.098 943.897 276.116Z" fill="black"/>
<path d="M618.415 202.291H479.962V205.061H618.415V202.291Z" fill="#274D76"/>
<path d="M635.203 226.849H481.901V229.619H635.203V226.849Z" fill="#274D76"/>
<path d="M657.489 286.837H467.787V289.607H657.489V286.837Z" fill="#274D76"/>
<path d="M552.25 509.615C539.211 509.615 526.464 505.748 515.622 498.504C504.779 491.259 496.329 480.963 491.339 468.915C486.349 456.868 485.043 443.612 487.587 430.823C490.131 418.034 496.41 406.286 505.631 397.065C514.851 387.845 526.599 381.566 539.388 379.022C552.177 376.478 565.434 377.783 577.481 382.774C589.528 387.764 599.825 396.214 607.069 407.056C614.314 417.898 618.181 430.645 618.181 443.685C618.159 461.164 611.205 477.921 598.846 490.28C586.486 502.64 569.729 509.593 552.25 509.615ZM552.25 380.525C539.759 380.525 527.547 384.229 517.161 391.169C506.774 398.11 498.679 407.974 493.898 419.515C489.118 431.056 487.867 443.755 490.304 456.007C492.741 468.259 498.757 479.513 507.59 488.346C516.423 497.179 527.677 503.194 539.929 505.631C552.18 508.068 564.88 506.818 576.421 502.037C587.962 497.257 597.826 489.161 604.766 478.775C611.706 468.388 615.41 456.177 615.41 443.685C615.392 426.94 608.732 410.885 596.891 399.044C585.05 387.204 568.996 380.543 552.25 380.525Z" fill="white"/>
<path d="M552.25 476.067C570.135 476.067 584.633 461.569 584.633 443.684C584.633 425.799 570.135 411.301 552.25 411.301C534.365 411.301 519.867 425.799 519.867 443.684C519.867 461.569 534.365 476.067 552.25 476.067Z" fill="#274D76"/>
<path d="M605.141 444.746C605.772 440.818 603.099 437.123 599.172 436.493C595.244 435.862 591.549 438.535 590.919 442.463C590.288 446.39 592.961 450.085 596.888 450.716C600.816 451.346 604.511 448.674 605.141 444.746Z" fill="white"/>
<path d="M510.335 444.753C510.965 440.825 508.292 437.13 504.365 436.5C500.437 435.869 496.742 438.542 496.112 442.47C495.481 446.397 498.154 450.092 502.082 450.723C506.009 451.353 509.704 448.68 510.335 444.753Z" fill="white"/>
<path d="M406.58 494.475C396.535 494.475 386.715 491.496 378.362 485.915C370.01 480.334 363.5 472.402 359.656 463.121C355.811 453.84 354.805 443.627 356.765 433.775C358.725 423.922 363.562 414.872 370.666 407.769C377.769 400.666 386.819 395.828 396.672 393.869C406.524 391.909 416.737 392.915 426.017 396.759C435.298 400.603 443.231 407.113 448.812 415.466C454.393 423.818 457.372 433.638 457.372 443.684C457.357 457.15 452.001 470.06 442.479 479.582C432.957 489.104 420.047 494.46 406.58 494.475ZM406.58 395.663C397.083 395.663 387.798 398.479 379.901 403.756C372.004 409.032 365.849 416.532 362.215 425.307C358.58 434.082 357.629 443.737 359.482 453.052C361.335 462.367 365.909 470.924 372.625 477.64C379.34 484.355 387.897 488.929 397.212 490.782C406.527 492.635 416.183 491.684 424.957 488.049C433.732 484.415 441.232 478.26 446.508 470.363C451.785 462.466 454.601 453.181 454.601 443.684C454.587 430.952 449.523 418.746 440.52 409.744C431.518 400.741 419.312 395.677 406.58 395.663Z" fill="white"/>
<path d="M424.105 461.215C433.788 451.533 433.788 435.835 424.105 426.152C414.423 416.47 398.725 416.47 389.043 426.152C379.36 435.835 379.361 451.533 389.043 461.215C398.725 470.897 414.423 470.897 424.105 461.215Z" fill="#274D76"/>
<path d="M447.108 443.615C447.108 444.71 446.783 445.782 446.175 446.693C445.566 447.604 444.701 448.314 443.688 448.733C442.676 449.152 441.562 449.262 440.487 449.048C439.412 448.835 438.425 448.307 437.65 447.532C436.875 446.757 436.348 445.77 436.134 444.695C435.92 443.621 436.03 442.507 436.449 441.494C436.869 440.482 437.579 439.617 438.49 439.008C439.401 438.399 440.472 438.074 441.568 438.074C443.037 438.074 444.447 438.658 445.486 439.697C446.525 440.736 447.108 442.145 447.108 443.615Z" fill="white"/>
<path d="M374.543 443.615C374.543 444.71 374.218 445.782 373.61 446.693C373.001 447.604 372.136 448.314 371.123 448.733C370.111 449.152 368.997 449.262 367.922 449.048C366.847 448.835 365.86 448.307 365.085 447.532C364.311 446.757 363.783 445.77 363.569 444.695C363.355 443.621 363.465 442.507 363.884 441.494C364.304 440.482 365.014 439.617 365.925 439.008C366.836 438.399 367.907 438.074 369.003 438.074C370.472 438.074 371.882 438.658 372.921 439.697C373.96 440.736 374.543 442.145 374.543 443.615Z" fill="white"/>
<path d="M694.886 494.475C684.841 494.475 675.021 491.496 666.668 485.915C658.315 480.334 651.805 472.402 647.961 463.121C644.117 453.84 643.111 443.627 645.071 433.775C647.031 423.922 651.868 414.872 658.971 407.769C666.075 400.666 675.125 395.828 684.977 393.869C694.83 391.909 705.042 392.915 714.323 396.759C723.604 400.603 731.536 407.113 737.117 415.466C742.698 423.818 745.677 433.638 745.677 443.684C745.663 457.15 740.307 470.06 730.785 479.582C721.263 489.104 708.352 494.46 694.886 494.475ZM694.886 395.663C685.388 395.663 676.104 398.479 668.207 403.756C660.31 409.032 654.155 416.532 650.52 425.307C646.886 434.082 645.935 443.737 647.788 453.052C649.641 462.367 654.214 470.924 660.93 477.64C667.646 484.355 676.203 488.929 685.518 490.782C694.833 492.635 704.488 491.684 713.263 488.049C722.038 484.415 729.537 478.26 734.814 470.363C740.091 462.466 742.907 453.181 742.907 443.684C742.892 430.952 737.828 418.746 728.826 409.744C719.823 400.741 707.618 395.677 694.886 395.663Z" fill="white"/>
<path d="M712.418 461.209C722.1 451.527 722.1 435.829 712.418 426.146C702.735 416.464 687.037 416.464 677.355 426.146C667.673 435.829 667.673 451.527 677.355 461.209C687.037 470.891 702.735 470.891 712.418 461.209Z" fill="#274D76"/>
<path d="M735.414 443.615C735.414 444.71 735.089 445.782 734.48 446.693C733.871 447.604 733.006 448.314 731.994 448.733C730.982 449.152 729.868 449.262 728.793 449.048C727.718 448.835 726.731 448.307 725.956 447.532C725.181 446.757 724.653 445.77 724.44 444.695C724.226 443.621 724.336 442.507 724.755 441.494C725.174 440.482 725.885 439.617 726.796 439.008C727.707 438.399 728.778 438.074 729.874 438.074C731.343 438.074 732.752 438.658 733.791 439.697C734.83 440.736 735.414 442.145 735.414 443.615Z" fill="white"/>
<path d="M662.849 443.615C662.849 444.71 662.524 445.782 661.915 446.693C661.307 447.604 660.441 448.314 659.429 448.733C658.416 449.152 657.302 449.262 656.228 449.048C655.153 448.835 654.166 448.307 653.391 447.532C652.616 446.757 652.089 445.77 651.875 444.695C651.661 443.621 651.771 442.507 652.19 441.494C652.609 440.482 653.32 439.617 654.231 439.008C655.142 438.399 656.213 438.074 657.309 438.074C658.778 438.074 660.187 438.658 661.226 439.697C662.265 440.736 662.849 442.145 662.849 443.615Z" fill="white"/>
<path d="M339.611 307.946H336.841V504.005H339.611V307.946Z" fill="white"/>
<path d="M776.177 735.675C775.564 735.672 774.954 735.588 774.362 735.425L543.025 671.296C541.255 670.804 539.752 669.628 538.848 668.028C537.944 666.428 537.713 664.534 538.205 662.764C538.697 660.993 539.873 659.491 541.473 658.587C543.073 657.683 544.967 657.451 546.737 657.944L778.047 722.101C779.666 722.547 781.067 723.567 781.991 724.97C782.914 726.373 783.296 728.064 783.066 729.727C782.835 731.391 782.008 732.914 780.738 734.013C779.469 735.112 777.842 735.713 776.163 735.702L776.177 735.675Z" fill="#93B4F6"/>
<path d="M543.967 604.59C537.469 604.59 531.117 606.517 525.714 610.127C520.312 613.737 516.101 618.868 513.614 624.871C511.127 630.875 510.477 637.481 511.744 643.854C513.012 650.227 516.141 656.081 520.736 660.676C525.331 665.27 531.185 668.399 537.558 669.667C543.931 670.935 550.537 670.284 556.54 667.797C562.543 665.311 567.675 661.1 571.285 655.697C574.895 650.294 576.822 643.942 576.822 637.444C576.822 628.731 573.36 620.374 567.199 614.213C561.037 608.051 552.681 604.59 543.967 604.59ZM543.967 651.96C541.096 651.96 538.29 651.108 535.903 649.513C533.516 647.918 531.655 645.651 530.557 642.999C529.458 640.347 529.17 637.428 529.731 634.612C530.291 631.796 531.673 629.21 533.703 627.18C535.733 625.15 538.32 623.767 541.135 623.207C543.951 622.647 546.87 622.935 549.522 624.033C552.175 625.132 554.442 626.992 556.037 629.38C557.632 631.767 558.483 634.573 558.483 637.444C558.468 641.284 556.933 644.962 554.212 647.672C551.491 650.383 547.808 651.904 543.967 651.904V651.96Z" fill="#274D76"/>
<path d="M543.967 601.82C536.922 601.82 530.034 603.91 524.176 607.824C518.317 611.739 513.751 617.302 511.055 623.812C508.358 630.321 507.653 637.484 509.028 644.395C510.402 651.305 513.795 657.653 518.777 662.635C523.759 667.617 530.107 671.01 537.017 672.385C543.928 673.759 551.091 673.054 557.6 670.357C564.11 667.661 569.674 663.095 573.588 657.237C577.502 651.378 579.592 644.491 579.592 637.445C579.581 628 575.824 618.945 569.146 612.267C562.467 605.588 553.412 601.831 543.967 601.82ZM543.967 670.299C537.469 670.299 531.117 668.372 525.715 664.762C520.312 661.152 516.101 656.021 513.614 650.018C511.127 644.014 510.477 637.408 511.744 631.035C513.012 624.662 516.141 618.808 520.736 614.213C525.331 609.618 531.185 606.489 537.558 605.222C543.931 603.954 550.537 604.605 556.54 607.091C562.544 609.578 567.675 613.789 571.285 619.192C574.895 624.595 576.822 630.947 576.822 637.445C576.822 646.158 573.36 654.515 567.199 660.676C561.038 666.838 552.681 670.299 543.967 670.299Z" fill="#74BAAB"/>
<path d="M543.967 622.929C541.096 622.929 538.29 623.78 535.903 625.375C533.516 626.97 531.655 629.237 530.556 631.89C529.458 634.542 529.17 637.461 529.73 640.276C530.29 643.092 531.673 645.678 533.703 647.709C535.733 649.739 538.319 651.121 541.135 651.681C543.951 652.241 546.87 651.954 549.522 650.855C552.174 649.756 554.441 647.896 556.037 645.509C557.632 643.122 558.483 640.315 558.483 637.444C558.483 633.595 556.953 629.902 554.231 627.18C551.509 624.458 547.817 622.929 543.967 622.929ZM543.967 649.245C541.644 649.245 539.373 648.556 537.442 647.266C535.51 645.975 534.005 644.141 533.116 641.995C532.227 639.848 531.994 637.487 532.447 635.208C532.9 632.93 534.019 630.837 535.662 629.194C537.304 627.552 539.397 626.433 541.676 625.98C543.954 625.527 546.316 625.759 548.462 626.648C550.608 627.537 552.443 629.043 553.733 630.974C555.024 632.906 555.713 635.177 555.713 637.5C555.68 640.595 554.428 643.552 552.23 645.73C550.031 647.908 547.062 649.131 543.967 649.135V649.245Z" fill="#74BAAB"/>
<path d="M779.959 696.671C774.274 696.671 768.717 698.357 763.991 701.515C759.265 704.673 755.581 709.161 753.406 714.413C751.23 719.665 750.661 725.443 751.77 731.018C752.879 736.594 755.617 741.715 759.636 745.734C763.655 749.754 768.776 752.491 774.351 753.6C779.927 754.709 785.705 754.14 790.957 751.964C796.209 749.789 800.697 746.105 803.855 741.379C807.013 736.652 808.699 731.096 808.699 725.411C808.699 717.789 805.671 710.479 800.281 705.089C794.891 699.699 787.581 696.671 779.959 696.671ZM779.959 738.099C777.446 738.099 774.99 737.354 772.901 735.957C770.812 734.561 769.184 732.577 768.223 730.255C767.262 727.933 767.011 725.379 767.502 722.915C767.994 720.45 769.205 718.187 770.982 716.412C772.76 714.636 775.024 713.427 777.489 712.939C779.954 712.45 782.508 712.704 784.829 713.667C787.149 714.631 789.132 716.261 790.526 718.351C791.92 720.442 792.662 722.899 792.66 725.411C792.656 728.778 791.316 732.005 788.935 734.384C786.553 736.763 783.325 738.099 779.959 738.099Z" fill="#274D76"/>
<path d="M779.959 693.9C773.727 693.9 767.634 695.748 762.452 699.211C757.27 702.673 753.232 707.595 750.847 713.352C748.462 719.11 747.838 725.446 749.053 731.559C750.269 737.671 753.27 743.286 757.677 747.693C762.084 752.099 767.699 755.101 773.811 756.316C779.924 757.532 786.259 756.908 792.017 754.523C797.775 752.138 802.696 748.099 806.159 742.918C809.621 737.736 811.469 731.643 811.469 725.411C811.462 717.056 808.14 709.046 802.232 703.138C796.324 697.23 788.314 693.908 779.959 693.9ZM779.959 754.152C774.274 754.152 768.718 752.466 763.991 749.308C759.265 746.15 755.581 741.661 753.406 736.41C751.231 731.158 750.661 725.379 751.77 719.804C752.879 714.229 755.617 709.108 759.636 705.088C763.656 701.069 768.777 698.332 774.352 697.223C779.927 696.114 785.706 696.683 790.957 698.858C796.209 701.034 800.698 704.717 803.856 709.444C807.014 714.17 808.699 719.727 808.699 725.411C808.699 733.034 805.671 740.344 800.281 745.734C794.891 751.124 787.581 754.152 779.959 754.152Z" fill="#93B4F6"/>
<path d="M779.959 712.71C777.447 712.71 774.991 713.455 772.902 714.85C770.814 716.246 769.186 718.23 768.224 720.551C767.263 722.871 767.012 725.425 767.502 727.889C767.992 730.353 769.201 732.616 770.978 734.392C772.754 736.169 775.017 737.378 777.481 737.868C779.945 738.358 782.499 738.107 784.819 737.146C787.14 736.184 789.124 734.556 790.52 732.468C791.915 730.379 792.66 727.923 792.66 725.411C792.66 722.043 791.322 718.812 788.94 716.43C786.558 714.048 783.328 712.71 779.959 712.71ZM779.959 735.328C777.994 735.328 776.074 734.746 774.44 733.654C772.807 732.562 771.534 731.01 770.782 729.195C770.031 727.379 769.835 725.382 770.22 723.455C770.604 721.528 771.551 719.758 772.941 718.37C774.332 716.982 776.103 716.037 778.03 715.655C779.957 715.274 781.955 715.472 783.769 716.226C785.583 716.98 787.133 718.255 788.223 719.89C789.313 721.525 789.893 723.446 789.89 725.411C789.886 728.043 788.838 730.565 786.976 732.425C785.114 734.284 782.59 735.328 779.959 735.328Z" fill="#93B4F6"/>
<path d="M812.854 749.11C812.854 749.11 793.186 782.726 790.374 807.492L794.377 809.833C808.948 801.397 834.24 761.618 834.24 761.618L812.854 749.11Z" fill="#274D76"/>
<path d="M835.639 759.221L814.253 746.755L811.857 745.37L810.472 747.766C809.655 749.151 790.485 782.186 787.632 807.242L787.438 809.029L788.989 809.943L790.804 811.009L792.992 812.284L794.377 813.101L795.762 812.284C810.749 803.599 835.528 764.803 836.581 763.155L838.118 760.731L835.639 759.221ZM794.377 809.804L790.374 807.464C793.145 782.698 812.854 749.082 812.854 749.082L834.24 761.548C834.24 761.548 808.962 801.397 794.377 809.804Z" fill="#93B4F6"/>
<path d="M794.225 805.511C792.743 804.642 791.037 804.233 789.322 804.334C787.608 804.436 785.962 805.043 784.592 806.08C783.223 807.117 782.192 808.537 781.629 810.16C781.067 811.782 780.998 813.536 781.432 815.198C781.866 816.859 782.783 818.355 784.067 819.496C785.351 820.637 786.944 821.371 788.646 821.606C790.347 821.842 792.08 821.567 793.625 820.817C795.171 820.068 796.459 818.877 797.328 817.395C798.488 815.406 798.814 813.039 798.232 810.812C797.651 808.584 796.21 806.678 794.225 805.511Z" fill="#274D76"/>
<path d="M800.915 810.109C800.27 807.662 798.833 805.497 796.829 803.951C794.825 802.405 792.365 801.566 789.834 801.563C788.082 801.561 786.354 801.961 784.781 802.732C783.208 803.503 781.834 804.625 780.763 806.012C779.692 807.398 778.955 809.012 778.606 810.729C778.258 812.445 778.308 814.219 778.753 815.913C779.125 817.378 779.783 818.755 780.69 819.964C781.596 821.174 782.733 822.192 784.035 822.96C785.337 823.728 786.778 824.231 788.275 824.44C789.772 824.648 791.296 824.559 792.758 824.176C794.22 823.793 795.592 823.124 796.795 822.209C797.997 821.293 799.007 820.149 799.765 818.841C800.523 817.533 801.015 816.089 801.213 814.59C801.41 813.092 801.309 811.569 800.915 810.109ZM797.327 817.395C796.458 818.867 795.173 820.049 793.633 820.792C792.092 821.535 790.367 821.804 788.674 821.568C786.98 821.331 785.395 820.598 784.118 819.461C782.841 818.325 781.929 816.835 781.497 815.181C781.065 813.527 781.132 811.782 781.691 810.166C782.25 808.55 783.274 807.135 784.636 806.101C785.997 805.067 787.634 804.459 789.341 804.354C791.048 804.249 792.747 804.651 794.225 805.511C795.212 806.085 796.075 806.848 796.766 807.757C797.456 808.666 797.96 809.703 798.249 810.807C798.537 811.912 798.604 813.063 798.446 814.193C798.288 815.324 797.908 816.412 797.327 817.395Z" fill="#93B4F6"/>
<path d="M838.354 754.595C838.354 754.595 860.612 713.042 860.82 696.199L856.817 693.858C836.623 708.457 816.954 742.087 816.954 742.087L838.354 754.595Z" fill="#274D76"/>
<path d="M862.219 693.817L859.892 692.432L858.216 691.448L856.665 690.534L855.197 691.587C834.753 706.366 815.375 739.262 814.558 740.66L813.173 743.043L815.555 744.428L836.955 756.894L839.434 758.279L840.819 755.744C841.747 754.027 863.396 713.402 863.618 696.088V694.482L862.219 693.817ZM838.354 754.594L816.954 742.129C816.954 742.129 836.623 708.499 856.817 693.9L860.82 696.241C860.612 713.042 838.354 754.594 838.354 754.594Z" fill="#93B4F6"/>
<path d="M856.984 698.181C858.467 699.047 860.173 699.454 861.887 699.35C863.601 699.247 865.247 698.637 866.614 697.599C867.982 696.56 869.012 695.14 869.572 693.516C870.133 691.893 870.199 690.14 869.764 688.479C869.328 686.817 868.41 685.323 867.125 684.183C865.84 683.044 864.246 682.311 862.544 682.078C860.843 681.844 859.11 682.12 857.566 682.871C856.021 683.622 854.734 684.814 853.867 686.297C852.707 688.287 852.384 690.655 852.968 692.883C853.553 695.111 854.997 697.016 856.984 698.181Z" fill="#274D76"/>
<path d="M867.136 680.797C865.177 679.661 862.925 679.131 860.664 679.274C858.404 679.417 856.237 680.227 854.436 681.602C852.636 682.977 851.284 684.855 850.551 686.998C849.818 689.141 849.736 691.453 850.317 693.643C850.898 695.832 852.115 697.8 853.814 699.298C855.513 700.796 857.617 701.756 859.862 702.058C862.107 702.36 864.391 701.99 866.426 700.994C868.46 699.998 870.153 698.421 871.292 696.463C872.812 693.833 873.228 690.708 872.449 687.772C871.671 684.836 869.76 682.328 867.136 680.797ZM868.854 695.078C867.987 696.565 866.699 697.761 865.152 698.516C863.604 699.27 861.868 699.549 860.163 699.316C858.457 699.083 856.859 698.35 855.571 697.209C854.282 696.067 853.361 694.569 852.925 692.904C852.488 691.239 852.555 689.482 853.118 687.855C853.68 686.228 854.713 684.805 856.085 683.765C857.457 682.726 859.106 682.116 860.824 682.015C862.543 681.913 864.252 682.323 865.737 683.194C867.727 684.356 869.174 686.26 869.76 688.488C870.347 690.716 870.026 693.086 868.868 695.078H868.854Z" fill="#93B4F6"/>
<path d="M824.198 523.092C824.198 496.221 831.29 474.447 840.03 474.447H806.053C797.313 474.447 790.222 496.221 790.222 523.092C790.222 549.962 797.313 571.722 806.053 571.722H840.03C831.317 571.722 824.198 549.948 824.198 523.092Z" fill="#74BAAB"/>
<path d="M832.786 512.592C834.171 512.592 839.129 514.324 841.678 520.82C846.484 517.149 847.218 504.974 847.218 503.049C847.052 492.481 843.645 484.614 840.21 484.78C836.152 484.96 832.19 495.611 832.716 510.487C832.716 511.249 832.758 512.011 832.786 512.592ZM832.924 516.457C830.486 523.826 831.636 553.162 836.387 559.99C837.772 561.888 839.753 562.331 840.833 560.212C843.603 554.754 844.684 541.499 843.118 529.809C841.678 519.075 834.642 516.374 832.924 516.457ZM845.93 517.69C845.514 519.516 844.675 521.22 843.479 522.662C848.354 538.106 845.127 546.873 845.127 546.873C845.127 546.873 851.166 545.904 851.235 533.854C851.29 525.127 849.379 519.49 845.93 517.69Z" fill="#93B4F6"/>
<path d="M790.097 685.244C789.361 685.103 788.605 685.113 787.873 685.273C787.141 685.433 786.45 685.74 785.84 686.175C785.23 686.61 784.715 687.164 784.325 687.804C783.936 688.444 783.68 689.156 783.573 689.898L782.922 694.455C782.894 694.69 782.78 694.907 782.603 695.064C782.426 695.222 782.197 695.308 781.96 695.308C781.722 695.308 781.494 695.222 781.316 695.064C781.139 694.907 781.025 694.69 780.997 694.455L780.291 689.828C780.164 689.009 779.856 688.229 779.388 687.544C778.92 686.86 778.304 686.29 777.587 685.875C776.869 685.46 776.067 685.212 775.241 685.148C774.414 685.085 773.584 685.207 772.811 685.507C771.619 685.99 770.627 686.866 770 687.989C769.373 689.112 769.148 690.416 769.362 691.684L769.902 695.161C770.025 695.931 769.884 696.72 769.502 697.399C769.12 698.079 768.52 698.61 767.799 698.907C767.078 699.203 766.278 699.248 765.529 699.033C764.779 698.818 764.124 698.357 763.67 697.723L761.149 694.233C760.407 693.174 759.323 692.403 758.079 692.05C756.835 691.697 755.508 691.783 754.32 692.294C753.566 692.628 752.896 693.127 752.359 693.753C751.823 694.38 751.432 695.118 751.217 695.914C751.002 696.711 750.968 697.545 751.117 698.356C751.265 699.168 751.593 699.936 752.076 700.604L769.681 724.926C770.195 725.639 770.871 726.22 771.654 726.619C772.437 727.019 773.303 727.227 774.182 727.226C775.304 727.226 785.124 721.935 785.374 721.935C788.144 721.935 790.208 722.059 790.596 719.289L794.502 691.754C794.728 690.313 794.399 688.839 793.581 687.631C792.764 686.423 791.519 685.57 790.097 685.244ZM771.564 728.708C769.168 730.605 770.83 729.941 769.057 731.935C769.057 732.018 777.368 745.204 768.836 756.396C766.522 759.292 763.707 761.75 760.525 763.653C755.498 767.033 749.791 770.856 746.051 781.424C737.63 805.248 755.151 825.747 755.899 826.689C756.354 827.305 756.932 827.82 757.597 828.202C758.261 828.584 758.997 828.823 759.759 828.906C760.521 828.988 761.291 828.912 762.022 828.682C762.753 828.451 763.428 828.072 764.004 827.567C764.581 827.063 765.047 826.444 765.372 825.75C765.697 825.057 765.875 824.303 765.895 823.537C765.914 822.771 765.774 822.01 765.484 821.3C765.194 820.591 764.76 819.95 764.21 819.417C764.071 819.265 750.151 802.935 756.439 785.122C758.96 778.017 762.187 775.856 766.647 772.864C770.856 770.312 774.576 767.028 777.631 763.169C788.559 748.792 783.504 734.968 779.321 729.677C778.419 728.523 777.096 727.773 775.643 727.591C774.189 727.41 772.723 727.811 771.564 728.708Z" fill="#93B4F6"/>
<path d="M547.817 630.574C546.29 630.376 544.74 630.693 543.413 631.474C542.971 631.23 542.507 631.026 542.028 630.865C540.288 630.305 538.398 630.455 536.768 631.283C535.139 632.11 533.903 633.548 533.329 635.283L522.415 668.138C521.837 669.881 521.974 671.782 522.798 673.424C523.621 675.065 525.063 676.313 526.806 676.891C527.51 677.132 528.25 677.254 528.994 677.252C530.19 677.248 531.364 676.935 532.403 676.343C533.442 675.75 534.31 674.899 534.922 673.872L534.437 677.335C534.315 678.236 534.37 679.153 534.602 680.032C534.833 680.912 535.236 681.738 535.786 682.462C536.337 683.186 537.025 683.794 537.81 684.253C538.596 684.711 539.464 685.01 540.366 685.133C540.679 685.153 540.994 685.153 541.308 685.133C542.992 685.148 544.625 684.549 545.9 683.448C547.174 682.346 548.004 680.818 548.233 679.149L553.773 638.358C553.894 637.456 553.836 636.539 553.602 635.659C553.368 634.779 552.962 633.954 552.409 633.231C551.856 632.508 551.166 631.902 550.378 631.446C549.59 630.99 548.72 630.693 547.817 630.574Z" fill="#93B4F6"/>
<path d="M1010.59 842.492C1024.01 767.158 964.756 704.067 958.302 702.142L952 708.624C957.54 715.937 977.887 756.312 973.025 797.034C972.936 797.783 972.685 798.504 972.29 799.147C971.895 799.79 971.365 800.34 970.737 800.759C970.109 801.177 969.398 801.455 968.652 801.572C967.907 801.69 967.145 801.644 966.419 801.438C915.627 787.214 844.725 747.96 844.725 747.96L842.204 751.908L792.756 723.929C791.826 723.403 790.801 723.066 789.74 722.936C788.68 722.807 787.604 722.887 786.574 723.174C785.545 723.46 784.581 723.946 783.74 724.604C782.898 725.263 782.194 726.08 781.669 727.011C781.143 727.941 780.806 728.966 780.676 730.027C780.546 731.087 780.627 732.163 780.913 733.193C781.199 734.222 781.686 735.186 782.344 736.027C783.002 736.869 783.82 737.573 784.75 738.098L834.295 766.133L832.342 769.041C832.342 769.041 908.965 811.48 937.609 840.539C938.325 841.27 938.863 842.157 939.18 843.13C939.497 844.104 939.585 845.137 939.436 846.15C939.287 847.163 938.906 848.127 938.322 848.968C937.738 849.809 936.968 850.503 936.071 850.997C902.552 869.557 853.949 880.762 845.348 878.837L842.204 887.369C846.858 892.148 935.212 905.874 997.334 863.989C1001.02 861.475 1005.34 860.037 1009.8 859.834C1011.35 859.834 1013.04 856.939 1012.36 855.498C1010.44 851.452 1009.82 846.907 1010.59 842.492Z" fill="#274D76"/>
<path d="M1013.32 843.046C1020.53 802.56 1006.97 766.575 994.328 743.528C980.713 718.693 963.773 700.95 959.092 699.551L957.485 699.08L956.308 700.285L950.019 706.767L948.357 708.485L949.742 710.382C955.615 718.07 974.896 757.572 970.228 796.784C970.153 797.378 969.864 797.924 969.415 798.319C968.966 798.715 968.388 798.932 967.79 798.931C967.561 798.931 967.333 798.903 967.111 798.848C917.248 784.872 846.706 745.993 845.999 745.605L843.742 744.359L842.357 746.519L841.207 748.278L794.017 721.588C792.135 720.517 789.977 720.031 787.818 720.191C785.659 720.352 783.596 721.152 781.893 722.489C780.191 723.826 778.924 725.64 778.257 727.7C777.589 729.76 777.55 731.971 778.144 734.054C778.521 735.437 779.169 736.731 780.051 737.86C780.933 738.99 782.032 739.932 783.283 740.633L830.237 767.185L829.946 767.614L828.27 770.121L830.902 771.589C831.096 771.686 850.293 782.338 872.69 796.382C902.248 814.901 923.938 830.885 935.504 842.617C935.922 843.036 936.237 843.548 936.422 844.111C936.607 844.673 936.658 845.272 936.57 845.858C936.473 846.438 936.246 846.989 935.905 847.469C935.564 847.949 935.119 848.345 934.603 848.628C904.034 865.554 860.418 876.33 847.8 876.33C847.141 876.348 846.481 876.297 845.833 876.177L843.451 875.651L842.62 877.936L839.517 886.427L838.922 888.061L840.14 889.308C843.686 892.951 866.138 896.15 888.175 896.15C912.94 896.15 960.2 892.272 998.733 866.274C1001.98 864.042 1005.78 862.757 1009.72 862.562C1010.63 862.462 1011.5 862.14 1012.26 861.626C1013.02 861.112 1013.64 860.42 1014.07 859.612C1014.59 858.84 1014.93 857.951 1015.03 857.021C1015.14 856.092 1015.02 855.15 1014.68 854.279C1013.08 850.762 1012.61 846.841 1013.32 843.046ZM1012.21 855.512C1012.89 856.897 1011.2 859.778 1009.65 859.847C1005.19 860.05 1000.87 861.489 997.182 864.002C962.665 887.3 920.032 893.394 888.175 893.394C862.745 893.394 844.185 889.502 842.121 887.383L845.224 878.892C846.072 879.061 846.936 879.135 847.8 879.114C861 879.114 904.935 868.227 935.947 851.052C936.844 850.558 937.614 849.864 938.198 849.023C938.781 848.182 939.163 847.217 939.311 846.205C939.46 845.192 939.373 844.159 939.056 843.185C938.739 842.212 938.201 841.325 937.484 840.594C908.882 811.508 832.218 769.096 832.218 769.096L834.171 766.188L784.626 738.153C782.747 737.092 781.367 735.327 780.789 733.248C780.211 731.169 780.483 728.945 781.544 727.066C782.606 725.187 784.371 723.807 786.45 723.229C788.529 722.651 790.753 722.922 792.632 723.984L842.08 751.963L844.656 748.015C844.656 748.015 915.614 787.213 966.419 801.493C966.87 801.621 967.336 801.686 967.804 801.687C969.081 801.689 970.314 801.222 971.269 800.374C972.224 799.526 972.835 798.357 972.984 797.089C977.846 756.367 957.554 715.992 951.958 708.679L958.261 702.197C964.715 704.122 1023.97 767.213 1010.55 842.547C1009.77 846.906 1010.35 851.397 1012.21 855.415V855.512Z" fill="#93B4F6"/>
<path d="M817.244 733.288L805.203 753.877C803.882 756.135 804.643 759.037 806.901 760.357L827.49 772.398C829.748 773.719 832.649 772.959 833.97 770.7L846.011 750.111C847.332 747.853 846.572 744.952 844.313 743.631L823.724 731.59C821.466 730.269 818.565 731.03 817.244 733.288Z" fill="#274D76"/>
<path d="M849.13 745.731C848.628 743.805 847.383 742.156 845.667 741.146L825.071 729.11C823.92 728.435 822.61 728.081 821.276 728.085C819.966 728.088 818.68 728.432 817.543 729.083C816.407 729.734 815.459 730.669 814.793 731.797L802.757 752.393C802.258 753.244 801.932 754.185 801.797 755.163C801.662 756.14 801.721 757.134 801.97 758.089C802.22 759.043 802.655 759.939 803.251 760.725C803.847 761.512 804.592 762.173 805.444 762.671L826.04 774.707C827.758 775.71 829.804 775.991 831.728 775.487C833.653 774.983 835.298 773.736 836.304 772.02L848.354 751.424C848.854 750.574 849.181 749.633 849.314 748.655C849.447 747.678 849.384 746.684 849.13 745.731ZM845.958 750.025L833.894 770.621C833.468 771.342 832.86 771.938 832.13 772.349C831.401 772.76 830.576 772.971 829.739 772.962C828.901 772.962 828.078 772.737 827.356 772.311L806.76 760.274C806.222 759.961 805.751 759.544 805.375 759.048C804.999 758.553 804.724 757.987 804.567 757.385C804.41 756.782 804.374 756.155 804.46 755.538C804.546 754.922 804.754 754.328 805.07 753.792L817.107 733.196C817.742 732.112 818.782 731.325 819.998 731.009C821.213 730.692 822.505 730.871 823.589 731.506L844.185 743.543C844.73 743.849 845.208 744.261 845.593 744.753C845.978 745.245 846.262 745.809 846.428 746.412C846.594 747.014 846.639 747.644 846.561 748.264C846.483 748.884 846.282 749.482 845.972 750.025H845.958Z" fill="#93B4F6"/>
<path d="M948.856 344.831C934.492 344.831 927.221 340.939 920.185 337.172C913.148 333.404 906.486 329.817 892.815 329.817C879.144 329.817 872.51 333.391 865.46 337.172C858.41 340.953 851.152 344.831 836.788 344.831C822.425 344.831 815.167 340.939 808.131 337.172C801.095 333.404 794.419 329.817 780.762 329.817C767.105 329.817 760.456 333.391 753.406 337.172C746.356 340.953 739.098 344.831 724.735 344.831C710.371 344.831 703.1 340.939 696.064 337.172C689.027 333.404 682.365 329.817 668.708 329.817C655.051 329.817 648.292 333.335 641.283 337.172C634.275 341.009 626.962 344.831 612.612 344.831C598.263 344.831 590.977 340.939 583.941 337.172C576.905 333.404 570.242 329.817 556.585 329.817C542.928 329.817 536.266 333.335 529.174 337.172C522.083 341.009 514.853 344.831 500.503 344.831C486.154 344.831 478.868 340.939 471.832 337.172C464.796 333.404 458.133 329.817 444.476 329.817C430.819 329.817 424.157 333.391 417.121 337.172C410.085 340.953 402.799 344.831 388.45 344.831C374.1 344.831 366.815 340.939 359.778 337.172C352.742 333.404 346.08 329.817 332.423 329.817C318.766 329.817 312.118 333.391 305.067 337.172C298.017 340.953 290.759 344.831 276.396 344.831C262.033 344.831 254.775 340.939 247.739 337.172C240.702 333.404 234.04 329.817 220.383 329.817C206.726 329.817 200.064 333.391 193.028 337.172C185.992 340.953 178.706 344.831 164.356 344.831V342.061C178.013 342.061 184.676 338.502 191.712 334.72C198.748 330.939 206.02 327.047 220.383 327.047C234.747 327.047 242.004 330.953 249.041 334.72C256.077 338.488 262.739 342.061 276.396 342.061C290.053 342.061 296.715 338.502 303.765 334.72C310.816 330.939 318.073 327.047 332.423 327.047C346.772 327.047 354.058 330.953 361.094 334.72C368.13 338.488 374.793 342.061 388.45 342.061C402.107 342.061 408.769 338.502 415.805 334.72C422.841 330.939 430.127 327.047 444.476 327.047C458.826 327.047 466.111 330.953 473.148 334.72C480.184 338.488 486.846 342.061 500.503 342.061C514.16 342.061 520.809 338.502 527.859 334.72C534.909 330.939 542.167 327.047 556.53 327.047C570.893 327.047 578.151 330.953 585.201 334.72C592.251 338.488 598.9 342.061 612.557 342.061C626.214 342.061 632.918 338.502 639.981 334.72C647.045 330.939 654.289 327.047 668.653 327.047C683.016 327.047 690.288 330.953 697.324 334.72C704.36 338.488 711.023 342.061 724.68 342.061C738.336 342.061 744.999 338.502 752.035 334.72C759.071 330.939 766.357 327.047 780.706 327.047C795.056 327.047 802.341 330.953 809.378 334.72C816.414 338.488 823.076 342.061 836.733 342.061C850.39 342.061 857.052 338.502 864.102 334.72C871.153 330.939 878.41 327.047 892.76 327.047C907.109 327.047 914.395 330.953 921.431 334.72C928.467 338.488 935.13 342.061 948.8 342.061C962.471 342.061 969.106 338.502 976.156 334.72C983.206 330.939 990.464 327.047 1004.83 327.047V329.817C991.17 329.817 984.508 333.391 977.472 337.172C970.436 340.953 963.136 344.831 948.856 344.831Z" fill="white"/>
<path d="M840.058 474.447C831.318 474.447 824.226 496.221 824.226 523.092C824.226 549.962 831.318 571.722 840.058 571.722C848.797 571.722 855.889 549.948 855.889 523.092C855.889 496.235 848.797 474.447 840.058 474.447ZM840.058 568.952C834.6 568.952 826.996 551.5 826.996 523.092C826.996 494.683 834.6 477.217 840.058 477.217C845.515 477.217 853.119 494.67 853.119 523.092C853.119 551.513 845.515 568.952 840.058 568.952Z" fill="white"/>
<path d="M536.404 669.177C536.327 669.191 536.247 669.191 536.169 669.177C536.008 669.147 535.855 669.086 535.717 668.996C535.58 668.907 535.462 668.792 535.369 668.657C535.277 668.522 535.211 668.37 535.178 668.209C535.144 668.049 535.142 667.884 535.172 667.723L541.225 636.198C541.256 636.037 541.318 635.884 541.408 635.747C541.498 635.61 541.614 635.492 541.75 635.4C541.886 635.308 542.038 635.244 542.199 635.211C542.359 635.178 542.525 635.177 542.686 635.208C542.847 635.239 543 635.301 543.137 635.391C543.274 635.481 543.392 635.598 543.484 635.733C543.576 635.869 543.64 636.022 543.673 636.182C543.706 636.343 543.707 636.508 543.676 636.669L537.637 668.194C537.572 668.472 537.415 668.721 537.191 668.899C536.968 669.077 536.691 669.175 536.404 669.177Z" fill="black"/>
<path d="M781.814 714.981C781.483 714.981 781.166 714.849 780.933 714.616C780.699 714.382 780.567 714.065 780.567 713.734V699.676C780.549 699.5 780.568 699.322 780.622 699.154C780.677 698.986 780.766 698.832 780.884 698.7C781.002 698.569 781.147 698.464 781.308 698.392C781.47 698.32 781.644 698.283 781.821 698.283C781.998 698.283 782.172 698.32 782.334 698.392C782.495 698.464 782.64 698.569 782.758 698.7C782.876 698.832 782.965 698.986 783.02 699.154C783.074 699.322 783.093 699.5 783.075 699.676V713.734C783.075 713.899 783.042 714.062 782.978 714.214C782.915 714.367 782.822 714.505 782.704 714.621C782.587 714.737 782.448 714.828 782.295 714.89C782.142 714.952 781.979 714.983 781.814 714.981Z" fill="black"/>
<path d="M771.98 713.028C771.747 713.029 771.518 712.965 771.32 712.843C771.122 712.72 770.962 712.545 770.858 712.336L766.135 702.64C766.062 702.493 766.019 702.333 766.008 702.169C765.997 702.005 766.019 701.84 766.072 701.685C766.125 701.529 766.207 701.385 766.316 701.262C766.424 701.138 766.556 701.037 766.703 700.964C766.85 700.891 767.011 700.849 767.174 700.838C767.338 700.827 767.503 700.848 767.659 700.901C767.814 700.954 767.958 701.037 768.081 701.145C768.205 701.253 768.306 701.385 768.379 701.532L773.102 711.228C773.175 711.375 773.219 711.535 773.23 711.699C773.241 711.863 773.22 712.028 773.167 712.184C773.114 712.34 773.031 712.484 772.922 712.607C772.814 712.731 772.682 712.831 772.534 712.904C772.36 712.983 772.171 713.026 771.98 713.028Z" fill="black"/>
<path d="M541.862 166.792C531.125 165.394 520.26 165.264 509.493 166.404L509.146 163.634C520.135 162.473 531.222 162.603 542.181 164.021L541.862 166.792Z" fill="#274D76"/>
</g>
<defs>
<clipPath id="clip0_8_7556">
<rect width="1204.43" height="899.725" fill="white" transform="translate(0.569824 0.927734)"/>
</clipPath>
</defs>
</svg>
