<svg xmlns="http://www.w3.org/2000/svg" width="26" height="26" viewBox="0 0 26 26" fill="none">
  <g clip-path="url(#clip0_417_2981)">
    <path d="M12.9891 2.16666C7.00913 2.16666 2.16663 7.01999 2.16663 13C2.16663 18.98 7.00913 23.8333 12.9891 23.8333C18.98 23.8333 23.8333 18.98 23.8333 13C23.8333 7.01999 18.98 2.16666 12.9891 2.16666ZM16.4883 18.8392L13 16.7375L9.51163 18.8392C9.09996 19.0883 8.59079 18.72 8.69913 18.2542L9.61996 14.2892L6.55413 11.635C6.19663 11.3208 6.39163 10.725 6.86829 10.6817L10.92 10.335L12.5016 6.59749C12.6858 6.15332 13.3141 6.15332 13.4983 6.59749L15.08 10.3242L19.1316 10.6708C19.6083 10.7142 19.8033 11.31 19.435 11.6242L16.3691 14.2783L17.29 18.2542C17.3983 18.72 16.9 19.0883 16.4883 18.8392Z" fill="#66C0F4"/>
  </g>
  <defs>
    <clipPath id="clip0_417_2981">
      <rect width="26" height="26" fill="white"/>
    </clipPath>
  </defs>
</svg>