<svg width="116" height="142" viewBox="0 0 116 142" fill="none" xmlns="http://www.w3.org/2000/svg">
<path d="M112.309 48.4078C111.483 49.0468 96.8899 57.2402 96.8899 75.4588C96.8899 96.5316 115.458 103.987 116.014 104.171C115.929 104.626 113.064 114.381 106.224 124.321C100.125 133.068 93.7548 141.801 84.0644 141.801C74.374 141.801 71.8801 136.192 60.6934 136.192C49.7916 136.192 45.9155 141.986 37.0516 141.986C28.1877 141.986 22.0029 133.892 14.8919 123.952C6.65504 112.279 0 94.146 0 76.9356C0 49.3308 18.0128 34.6906 35.7405 34.6906C45.1602 34.6906 53.0123 40.8534 58.9263 40.8534C64.5553 40.8534 73.3337 34.3214 84.0501 34.3214C88.1115 34.3214 102.704 34.6906 112.309 48.4078ZM78.9626 22.6348C83.3946 17.395 86.5297 10.1246 86.5297 2.8542C86.5297 1.846 86.4442 0.8236 86.259 0C79.0482 0.2698 70.4693 4.7854 65.2963 10.7636C61.2349 15.3644 57.4442 22.6348 57.4442 30.0046C57.4442 31.1122 57.6295 32.2198 57.715 32.5748C58.171 32.66 58.912 32.7594 59.6531 32.7594C66.1228 32.7594 74.2599 28.4426 78.9626 22.6348Z" fill="#76808C"/>
</svg>
