<svg
    width="24"
    height="24"
    viewBox="0 0 24 24"
    fill="none"
    xmlns="http://www.w3.org/2000/svg"
>
    <path
    d="M8.10268 13.5994C7.64564 13.5994 7.25377 13.8131 6.93736 14.2495C6.62096 14.6859 6.46533 15.2142 6.46533 15.8433C6.46533 16.4723 6.62611 17.0109 6.93736 17.4426C7.24861 17.8744 7.64049 18.0937 8.10268 18.0937C8.52924 18.0937 8.89955 17.8753 9.21268 17.4436C9.5258 17.0119 9.68471 16.4789 9.68471 15.8442C9.68471 15.2095 9.52393 14.6812 9.21268 14.2505C8.90143 13.8197 8.53111 13.5994 8.10268 13.5994ZM15.9524 13.5994C15.5005 13.5994 15.1035 13.8131 14.7871 14.2495C14.4706 14.6859 14.315 15.2142 14.315 15.8433C14.315 16.4723 14.4758 17.0109 14.7871 17.4426C15.0983 17.8744 15.4953 18.0937 15.9524 18.0937C16.3794 18.0937 16.7492 17.8753 17.0675 17.4436C17.3858 17.0119 17.5396 16.4789 17.5396 15.8442C17.5396 15.2095 17.3788 14.6812 17.0675 14.2505C16.7563 13.8197 16.3846 13.5994 15.9524 13.5994Z"
    fill="#F3F3F3"
    />
    <path
    d="M21.5325 7.73438C21.5273 7.73438 21.668 7.00828 21.5475 5.74359C21.4369 4.47797 21.1725 3.31641 20.7389 2.25C20.7389 2.25 20.5177 2.29078 20.0958 2.39719C19.6739 2.50359 18.9844 2.71875 18.0417 3.14906C17.1127 3.58031 16.1334 4.15406 15.1139 4.85016C14.4206 4.65188 13.3861 4.55063 12 4.55063C10.6791 4.55063 9.64453 4.65188 8.88609 4.85016C6.64641 3.28078 4.76969 2.41406 3.25594 2.25C2.82437 3.31656 2.55656 4.48453 2.4525 5.75391C2.33203 7.01953 2.47266 7.74984 2.47266 7.74984C1.25203 9.08531 0.75 11.01 0.75 12.5991C0.75 13.8281 0.785156 14.94 1.05656 15.9272C1.33781 16.9073 1.69406 17.7084 2.11594 18.3244C2.55242 18.9472 3.08868 19.4938 3.70312 19.942C4.33078 20.4145 4.90828 20.7548 5.43094 20.9681C5.95828 21.1912 6.55594 21.3539 7.23891 21.4706C7.74508 21.5686 8.25659 21.6365 8.77078 21.6741C8.77078 21.6741 10.177 21.75 12.0052 21.75C13.8333 21.75 15.2344 21.6741 15.2344 21.6741C15.7485 21.6352 16.26 21.5667 16.7663 21.4688C17.3841 21.369 17.9888 21.2005 18.5691 20.9662C19.0917 20.7478 19.6692 20.4127 20.3034 19.9402C20.9176 19.4926 21.4524 18.9451 21.8855 18.3206C22.3073 17.7061 22.6636 16.9036 22.9448 15.9234C23.2261 14.9433 23.25 13.823 23.25 12.5939C23.25 11.0555 22.748 9.10547 21.5325 7.73438ZM18.248 19.597C16.8464 20.2622 14.7872 20.5312 12.0553 20.5312H11.9498C9.2175 20.5312 7.15828 20.2673 5.7825 19.597C4.40672 18.9267 3.70828 17.5603 3.70828 15.4988C3.70828 14.265 4.14 13.2647 4.98891 12.4988C5.36062 12.1706 5.8125 11.94 6.375 11.8031C6.9375 11.6663 7.44984 11.6625 7.93172 11.6761C8.40422 11.6962 9.06703 11.7877 9.90563 11.8538C10.7442 11.9198 11.377 12.0061 12.0052 12.0061C12.5925 12.0061 13.3711 11.9044 14.6217 11.8031C15.8723 11.7019 16.8066 11.6508 17.4089 11.752C18.0267 11.8538 18.5644 12.067 19.0214 12.4988C19.9102 13.3009 20.3555 14.3009 20.3573 15.4988C20.3522 17.5603 19.6439 18.9319 18.248 19.597Z"
    fill="#F3F3F3"
    />
</svg>