<svg width="19" height="19" viewBox="0 0 19 19" fill="none" xmlns="http://www.w3.org/2000/svg">
<g clip-path="url(#clip0_766_10353)">
<path d="M14.2897 16.8544C13.981 17.1632 13.4822 17.1632 13.1735 16.8544L11.4952 15.1761C11.1864 14.8673 11.1864 14.3686 11.4952 14.0598C11.8039 13.7511 12.3027 13.7511 12.6114 14.0598L13.7277 15.1761L16.5302 12.3736C16.8389 12.0648 17.3377 12.0648 17.6464 12.3736C17.9552 12.6823 17.9552 13.1811 17.6464 13.4898L14.2897 16.8544ZM9.5635 15.8332H3.16683C2.296 15.8332 1.5835 15.1207 1.5835 14.2498V4.74984C1.5835 3.879 2.296 3.1665 3.16683 3.1665H15.8335C16.7043 3.1665 17.4168 3.879 17.4168 4.74984V10.0382C16.6964 9.69775 15.8968 9.49984 15.0418 9.49984C11.9781 9.49984 9.50016 11.9778 9.50016 15.0415C9.50016 15.3107 9.52391 15.5719 9.5635 15.8332ZM9.08058 10.0303C9.33391 10.1886 9.66641 10.1886 9.91975 10.0303L15.5168 6.53109C15.7147 6.40442 15.8335 6.19067 15.8335 5.96109C15.8335 5.43067 15.2556 5.114 14.8043 5.39109L9.50016 8.70817L4.196 5.39109C3.74475 5.114 3.16683 5.43067 3.16683 5.96109C3.16683 6.19067 3.28558 6.40442 3.4835 6.53109L9.08058 10.0303Z" fill="#76808C"/>
</g>
<defs>
<clipPath id="clip0_766_10353">
<rect width="19" height="19" fill="white"/>
</clipPath>
</defs>
</svg>
