<svg xmlns="http://www.w3.org/2000/svg" width="26" height="26" viewBox="0 0 26 26" fill="none">
  <g clip-path="url(#clip0_417_2991)">
    <path d="M5.97143 20H13.7429C14.2771 20 14.7143 19.58 14.7143 19.0667V6.93333C14.7143 6.42 14.2771 6 13.7429 6H5.97143C5.43714 6 5 6.42 5 6.93333V19.0667C5 19.58 5.43714 20 5.97143 20ZM15.6857 8.8V17.2C15.6857 17.7133 16.1229 18.1333 16.6571 18.1333H21.0286C21.5629 18.1333 22 17.7133 22 17.2V8.8C22 8.28667 21.5629 7.86667 21.0286 7.86667H16.6571C16.1229 7.86667 15.6857 8.28667 15.6857 8.8Z" fill="#66C0F4"/>
  </g>
  <defs>
    <clipPath id="clip0_417_2991">
      <rect width="26" height="26" fill="white"/>
    </clipPath>
  </defs>
</svg>