<svg xmlns="http://www.w3.org/2000/svg" width="26" height="26" viewBox="0 0 26 26" fill="none">
  <g clip-path="url(#clip0_417_2901)">
    <path d="M17.3334 11.9167C19.1317 11.9167 20.5725 10.465 20.5725 8.66666C20.5725 6.86832 19.1317 5.41666 17.3334 5.41666C15.535 5.41666 14.0834 6.86832 14.0834 8.66666C14.0834 10.465 15.535 11.9167 17.3334 11.9167ZM8.66671 11.9167C10.465 11.9167 11.9059 10.465 11.9059 8.66666C11.9059 6.86832 10.465 5.41666 8.66671 5.41666C6.86837 5.41666 5.41671 6.86832 5.41671 8.66666C5.41671 10.465 6.86837 11.9167 8.66671 11.9167ZM8.66671 14.0833C6.14254 14.0833 1.08337 15.3508 1.08337 17.875V19.5C1.08337 20.0958 1.57087 20.5833 2.16671 20.5833H15.1667C15.7625 20.5833 16.25 20.0958 16.25 19.5V17.875C16.25 15.3508 11.1909 14.0833 8.66671 14.0833ZM17.3334 14.0833C17.0192 14.0833 16.6617 14.105 16.2825 14.1375C16.3042 14.1483 16.315 14.17 16.3259 14.1808C17.5609 15.08 18.4167 16.2825 18.4167 17.875V19.5C18.4167 19.8792 18.3409 20.2475 18.2217 20.5833H23.8334C24.4292 20.5833 24.9167 20.0958 24.9167 19.5V17.875C24.9167 15.3508 19.8575 14.0833 17.3334 14.0833Z" fill="#66C0F4"/>
  </g>
  <defs>
    <clipPath id="clip0_417_2901">
      <rect width="26" height="26" fill="white"/>
    </clipPath>
  </defs>
</svg>