<svg xmlns="http://www.w3.org/2000/svg" width="26" height="26" viewBox="0 0 26 26" fill="none">
  <g clip-path="url(#clip0_417_2984)">
    <path d="M23.3784 17.4309L22.1975 9.13252C21.8942 6.99835 20.0634 5.41669 17.9076 5.41669H8.09255C5.93672 5.41669 4.10588 6.99835 3.80255 9.13252L2.62172 17.4309C2.38338 19.0992 3.67255 20.5834 5.35172 20.5834C6.08838 20.5834 6.78172 20.2909 7.30172 19.7709L9.75005 17.3334H16.2501L18.6875 19.7709C19.2076 20.2909 19.9117 20.5834 20.6376 20.5834C22.3275 20.5834 23.6167 19.0992 23.3784 17.4309ZM11.9167 11.9167H9.75005V14.0834H8.66672V11.9167H6.50005V10.8334H8.66672V8.66669H9.75005V10.8334H11.9167V11.9167ZM16.2501 10.8334C15.6542 10.8334 15.1667 10.3459 15.1667 9.75002C15.1667 9.15419 15.6542 8.66669 16.2501 8.66669C16.8459 8.66669 17.3334 9.15419 17.3334 9.75002C17.3334 10.3459 16.8459 10.8334 16.2501 10.8334ZM18.4167 14.0834C17.8209 14.0834 17.3334 13.5959 17.3334 13C17.3334 12.4042 17.8209 11.9167 18.4167 11.9167C19.0126 11.9167 19.5 12.4042 19.5 13C19.5 13.5959 19.0126 14.0834 18.4167 14.0834Z" fill="#66C0F4"/>
  </g>
  <defs>
    <clipPath id="clip0_417_2984">
      <rect width="26" height="26" fill="white"/>
    </clipPath>
  </defs>
</svg>