<svg xmlns="http://www.w3.org/2000/svg" width="13" height="14" viewBox="0 0 13 14" fill="none">
<g opacity="0.4">
<path d="M5.89337 12.0509L8.89421 9.05002C9.09462 8.8496 9.20837 8.57335 9.20837 8.28627L9.20837 2.87502C9.20837 2.27919 8.72087 1.79168 8.12504 1.79168L3.25004 1.79168C2.81671 1.79168 2.42671 2.05168 2.25337 2.4471L0.487541 6.56918C0.0325407 7.64168 0.817957 8.83335 1.98254 8.83335L5.04296 8.83335L4.52837 11.3142C4.47421 11.585 4.55546 11.8613 4.75046 12.0563C5.07004 12.3704 5.57921 12.3704 5.89337 12.0509ZM11.375 1.79169C10.7792 1.79168 10.2917 2.27919 10.2917 2.87502L10.2917 7.20835C10.2917 7.80419 10.7792 8.29169 11.375 8.29169C11.9709 8.29169 12.4584 7.80419 12.4584 7.20835L12.4584 2.87502C12.4584 2.27919 11.9709 1.79169 11.375 1.79169Z" fill="#CD5444"/>
</g>
</svg>