<svg xmlns="http://www.w3.org/2000/svg" width="22" height="22" viewBox="0 0 22 22" fill="none">
  <g clip-path="url(#clip0_417_3124)">
    <path d="M7.97502 14.575L4.40002 11L7.97502 7.42499C8.33252 7.06749 8.33252 6.49916 7.97502 6.14166C7.61752 5.78416 7.04919 5.78416 6.69169 6.14166L2.48419 10.3492C2.12669 10.7067 2.12669 11.2842 2.48419 11.6417L6.69169 15.8583C7.04919 16.2158 7.61752 16.2158 7.97502 15.8583C8.33252 15.5008 8.33252 14.9325 7.97502 14.575ZM14.025 14.575L17.6 11L14.025 7.42499C13.6675 7.06749 13.6675 6.49916 14.025 6.14166C14.3825 5.78416 14.9509 5.78416 15.3084 6.14166L19.5159 10.3492C19.8734 10.7067 19.8734 11.2842 19.5159 11.6417L15.3084 15.8583C14.9509 16.2158 14.3825 16.2158 14.025 15.8583C13.6675 15.5008 13.6675 14.9325 14.025 14.575Z" fill="#76808C"/>
  </g>
  <defs>
    <clipPath id="clip0_417_3124">
      <rect width="22" height="22" fill="white"/>
    </clipPath>
  </defs>
</svg>