<svg xmlns="http://www.w3.org/2000/svg" width="30" height="30" viewBox="0 0 30 30" fill="none">
  <path d="M20.5037 11.25H17.5V8.75005C17.5 7.46005 17.605 6.64755 19.4537 6.64755H20.5387C21.2287 6.64755 21.7887 6.08755 21.7887 5.39755V3.83005C21.7887 3.1763 21.2875 2.61755 20.635 2.5738C19.88 2.52255 19.1237 2.4988 18.3662 2.50005C14.975 2.50005 12.5 4.5713 12.5 8.3738V11.25H10C9.31 11.25 8.75 11.81 8.75 12.5V15C8.75 15.69 9.31 16.25 10 16.25L12.5 16.2488V26.25C12.5 26.9401 13.06 27.5 13.75 27.5H16.25C16.94 27.5 17.5 26.9401 17.5 26.25V16.2463L20.2175 16.245C20.8525 16.245 21.3862 15.7688 21.4587 15.1375L21.745 12.6425C21.8312 11.9013 21.2512 11.25 20.5037 11.25Z" fill="#76808C"/>
</svg>