<svg xmlns="http://www.w3.org/2000/svg" width="25" height="25" viewBox="0 0 25 25" fill="none">
  <g clip-path="url(#clip0_1059_1632)">
    <path d="M20.1602 4.48998C17.5202 2.68998 14.2602 3.52998 12.5002 5.58998C10.7402 3.52998 7.48021 2.67998 4.84021 4.48998C3.44021 5.44998 2.56021 7.06998 2.50021 8.77998C2.36021 12.66 5.80021 15.77 11.0502 20.54L11.1502 20.63C11.9102 21.32 13.0802 21.32 13.8402 20.62L13.9502 20.52C19.2002 15.76 22.6302 12.65 22.5002 8.76998C22.4402 7.06998 21.5602 5.44998 20.1602 4.48998ZM12.6002 19.05L12.5002 19.15L12.4002 19.05C7.64021 14.74 4.50021 11.89 4.50021 8.99998C4.50021 6.99998 6.00021 5.49998 8.00021 5.49998C9.54021 5.49998 11.0402 6.48998 11.5702 7.85998H13.4402C13.9602 6.48998 15.4602 5.49998 17.0002 5.49998C19.0002 5.49998 20.5002 6.99998 20.5002 8.99998C20.5002 11.89 17.3602 14.74 12.6002 19.05Z" fill="#F3F3F3"/>
  </g>
  <defs>
    <clipPath id="clip0_1059_1632">
      <rect width="24" height="24" fill="white" transform="translate(0.5 0.5)"/>
    </clipPath>
  </defs>
</svg>