<svg xmlns="http://www.w3.org/2000/svg" width="13" height="14" viewBox="0 0 13 14" fill="none">
  <g opacity="0.4" clip-path="url(#clip0_1410_7583)">
    <path d="M5.89337 1.28252L8.89421 4.28335C9.09462 4.48377 9.20837 4.76002 9.20837 5.0471V10.4584C9.20837 11.0542 8.72087 11.5417 8.12504 11.5417H3.25004C2.81671 11.5417 2.42671 11.2817 2.25337 10.8863L0.48754 6.76419C0.0325403 5.69169 0.817957 4.50002 1.98254 4.50002H5.04296L4.52837 2.01919C4.47421 1.74835 4.55546 1.4721 4.75046 1.2771C5.07004 0.962938 5.57921 0.962938 5.89337 1.28252ZM11.375 11.5417C10.7792 11.5417 10.2917 11.0542 10.2917 10.4584V6.12502C10.2917 5.52919 10.7792 5.04169 11.375 5.04169C11.9709 5.04169 12.4584 5.52919 12.4584 6.12502V10.4584C12.4584 11.0542 11.9709 11.5417 11.375 11.5417Z" fill="#66C0F4"/>
  </g>
  <defs>
    <clipPath id="clip0_1410_7583">
      <rect width="13" height="13" fill="white" transform="matrix(-1 0 0 1 13 0.166687)"/>
    </clipPath>
  </defs>
</svg>