<svg width="25" height="25" viewBox="0 0 25 25" fill="none" xmlns="http://www.w3.org/2000/svg">
<g clip-path="url(#clip0_766_10298)">
<path d="M12.5002 22.9165C13.6461 22.9165 14.5836 21.979 14.5836 20.8332H10.4169C10.4169 21.979 11.344 22.9165 12.5002 22.9165ZM18.7502 16.6665V11.4582C18.7502 8.26025 17.0419 5.58317 14.0627 4.87484V4.1665C14.0627 3.30192 13.3648 2.604 12.5002 2.604C11.6357 2.604 10.9377 3.30192 10.9377 4.1665V4.87484C7.94815 5.58317 6.25024 8.24984 6.25024 11.4582V16.6665L4.90649 18.0103C4.25024 18.6665 4.70857 19.7915 5.63565 19.7915H19.3544C20.2815 19.7915 20.7502 18.6665 20.094 18.0103L18.7502 16.6665Z" fill="#76808C"/>
</g>
<defs>
<clipPath id="clip0_766_10298">
<rect width="25" height="25" fill="white"/>
</clipPath>
</defs>
</svg>
