<svg width="68" height="42" viewBox="0 0 68 42" fill="none" xmlns="http://www.w3.org/2000/svg">
<path d="M14.2637 5.76282C12.8368 5.76282 11.442 6.186 10.2556 6.97884C9.0693 7.77167 8.14474 8.89854 7.59892 10.2169C7.0531 11.5353 6.91053 12.9859 7.18926 14.3853C7.46798 15.7847 8.15547 17.07 9.16477 18.0786C10.1741 19.0872 11.4598 19.7739 12.8594 20.0516C14.259 20.3294 15.7095 20.1859 17.0275 19.6392C18.3455 19.0925 19.4718 18.1671 20.2638 16.9803C21.0558 15.7934 21.4781 14.3983 21.4771 12.9714C21.4771 12.0243 21.2905 11.0866 20.9279 10.2117C20.5654 9.33676 20.034 8.54188 19.3641 7.87244C18.6942 7.203 17.8989 6.67212 17.0238 6.31015C16.1487 5.94817 15.2108 5.76218 14.2637 5.76282ZM12.3233 7.54313C12.3233 7.42487 12.3467 7.30777 12.3921 7.19857C12.4375 7.08938 12.504 6.99023 12.5879 6.90683C12.6717 6.82343 12.7712 6.75743 12.8807 6.71261C12.9901 6.6678 13.1073 6.64506 13.2256 6.6457H15.2388C15.357 6.64506 15.4742 6.6678 15.5837 6.71261C15.6931 6.75743 15.7926 6.82343 15.8765 6.90683C15.9603 6.99023 16.0269 7.08938 16.0723 7.19857C16.1177 7.30777 16.141 7.42487 16.141 7.54313V10.2015C16.1335 10.4787 16.0327 10.7454 15.8548 10.9582L14.4674 12.4717C14.4379 12.5074 14.4008 12.536 14.3589 12.5557C14.3169 12.5754 14.2712 12.5856 14.2249 12.5856C14.1786 12.5856 14.1329 12.5754 14.0909 12.5557C14.049 12.536 14.0119 12.5074 13.9824 12.4717L12.7114 11.0795C12.5879 10.9681 12.4882 10.8329 12.4182 10.682C12.3482 10.5311 12.3093 10.3677 12.3039 10.2015L12.3233 7.54313ZM11.2609 14.8778H8.60261C8.36331 14.8778 8.13381 14.7828 7.9646 14.6135C7.79539 14.4443 7.70033 14.2148 7.70033 13.9755V11.9624C7.70033 11.7231 7.79539 11.4936 7.9646 11.3244C8.13381 11.1552 8.36331 11.0601 8.60261 11.0601H11.2609C11.5381 11.0683 11.8045 11.1691 12.0177 11.3463L13.5312 12.7337C13.5668 12.7633 13.5955 12.8003 13.6152 12.8423C13.6348 12.8842 13.645 12.9299 13.645 12.9762C13.645 13.0225 13.6348 13.0683 13.6152 13.1102C13.5955 13.1521 13.5668 13.1892 13.5312 13.2188L12.1293 14.4703C12.019 14.5926 11.8853 14.6917 11.7362 14.7617C11.5871 14.8316 11.4255 14.8711 11.2609 14.8778ZM16.1119 18.6761C16.1119 18.9154 16.0169 19.1449 15.8477 19.3142C15.6784 19.4834 15.449 19.5784 15.2097 19.5784H13.2159C12.9766 19.5784 12.7471 19.4834 12.5779 19.3142C12.4087 19.1449 12.3136 18.9154 12.3136 18.6761V16.0227C12.319 15.8564 12.3579 15.693 12.4279 15.5421C12.4979 15.3913 12.5976 15.2561 12.7211 15.1446L13.9921 13.7524C14.0216 13.7168 14.0587 13.6881 14.1006 13.6684C14.1426 13.6488 14.1883 13.6386 14.2346 13.6386C14.2809 13.6386 14.3266 13.6488 14.3686 13.6684C14.4105 13.6881 14.4476 13.7168 14.4772 13.7524L15.8645 15.2659C16.0417 15.4791 16.1425 15.7455 16.1507 16.0227L16.1119 18.6761ZM19.7162 14.8778H17.0773C16.911 14.8724 16.7476 14.8335 16.5968 14.7635C16.4459 14.6935 16.3107 14.5938 16.1993 14.4703L14.8119 13.1994C14.7755 13.1703 14.7461 13.1334 14.7259 13.0914C14.7057 13.0494 14.6952 13.0034 14.6952 12.9568C14.6952 12.9102 14.7057 12.8642 14.7259 12.8223C14.7461 12.7803 14.7755 12.7434 14.8119 12.7143L16.3205 11.3269C16.5338 11.1497 16.8002 11.0489 17.0773 11.0407H19.7356C19.9749 11.0407 20.2044 11.1358 20.3736 11.305C20.5428 11.4742 20.6379 11.7037 20.6379 11.943V13.9561C20.6405 14.0762 20.6191 14.1957 20.5749 14.3074C20.5307 14.4191 20.4646 14.5209 20.3806 14.6067C20.2965 14.6926 20.1962 14.7608 20.0854 14.8073C19.9747 14.8539 19.8558 14.8778 19.7356 14.8778H19.7162Z" fill="#76808C"/>
<path d="M21.0359 8.979V6.33036C21.056 6.00244 21.2005 5.69455 21.4398 5.46947C21.6791 5.2444 21.9953 5.11908 22.3238 5.11908C22.6523 5.11908 22.9685 5.2444 23.2078 5.46947C23.4472 5.69455 23.5916 6.00244 23.6117 6.33036V8.979C23.6225 9.15478 23.5972 9.33091 23.5374 9.49655C23.4775 9.66218 23.3844 9.81381 23.2638 9.9421C23.1431 10.0704 22.9975 10.1726 22.8358 10.2425C22.6742 10.3124 22.4999 10.3484 22.3238 10.3484C22.1477 10.3484 21.9734 10.3124 21.8118 10.2425C21.6501 10.1726 21.5045 10.0704 21.3838 9.9421C21.2632 9.81381 21.1701 9.66218 21.1102 9.49655C21.0504 9.33091 21.0251 9.15478 21.0359 8.979Z" fill="#76808C"/>
<path d="M26.7889 22.6588C26.7889 23.4007 26.5689 24.1258 26.1566 24.7426C25.7444 25.3594 25.1585 25.84 24.473 26.1236C23.7875 26.4073 23.0333 26.4813 22.3058 26.3362C21.5783 26.1911 20.9101 25.8335 20.3859 25.3086C19.8617 24.7837 19.5049 24.1151 19.3608 23.3874C19.2166 22.6597 19.2916 21.9056 19.5761 21.2205C19.8607 20.5354 20.3421 19.95 20.9594 19.5386C21.5767 19.1271 22.3021 18.908 23.044 18.909C24.0376 18.9103 24.9902 19.3059 25.6924 20.009C26.3945 20.7121 26.7889 21.6651 26.7889 22.6588Z" fill="#76808C"/>
<path d="M43.6604 8.97901V6.33037C43.6604 5.98943 43.7958 5.66246 44.0369 5.42138C44.278 5.1803 44.605 5.04486 44.9459 5.04486C45.2869 5.04486 45.6138 5.1803 45.8549 5.42138C46.096 5.66246 46.2314 5.98943 46.2314 6.33037V8.97901C46.2314 9.31995 46.096 9.64692 45.8549 9.888C45.6138 10.1291 45.2869 10.2645 44.9459 10.2645C44.605 10.2645 44.278 10.1291 44.0369 9.888C43.7958 9.64692 43.6604 9.31995 43.6604 8.97901Z" fill="#76808C"/>
<path d="M47.9728 22.6588C47.9728 23.4007 47.7527 24.1258 47.3405 24.7426C46.9282 25.3594 46.3423 25.84 45.6568 26.1236C44.9714 26.4073 44.2171 26.4813 43.4896 26.3362C42.7621 26.1911 42.094 25.8335 41.5697 25.3086C41.0455 24.7837 40.6887 24.1151 40.5446 23.3874C40.4005 22.6597 40.4754 21.9056 40.76 21.2205C41.0445 20.5354 41.5259 19.95 42.1432 19.5386C42.7605 19.1271 43.486 18.908 44.2278 18.909C45.2215 18.9103 46.174 19.3059 46.8762 20.009C47.5784 20.7121 47.9728 21.6651 47.9728 22.6588Z" fill="#76808C"/>
<path d="M53.0037 5.76282C51.5768 5.76282 50.182 6.186 48.9956 6.97884C47.8093 7.77167 46.8847 8.89854 46.3389 10.2169C45.7931 11.5353 45.6505 12.9859 45.9292 14.3853C46.208 15.7847 46.8955 17.07 47.9048 18.0786C48.9141 19.0872 50.1998 19.7739 51.5994 20.0516C52.999 20.3294 54.4495 20.1859 55.7675 19.6392C57.0855 19.0925 58.2118 18.1671 59.0038 16.9803C59.7958 15.7934 60.2181 14.3983 60.2171 12.9714C60.2171 12.0243 60.0305 11.0866 59.6679 10.2117C59.3054 9.33676 58.7739 8.54188 58.1041 7.87244C57.4342 7.203 56.6389 6.67212 55.7638 6.31015C54.8886 5.94817 53.9507 5.76218 53.0037 5.76282ZM48.5117 14.9457C48.096 14.9457 47.6897 14.8224 47.3442 14.5914C46.9987 14.3604 46.7295 14.032 46.5706 13.6479C46.4118 13.2639 46.3705 12.8413 46.4519 12.4337C46.5334 12.0261 46.7339 11.6518 47.0281 11.3583C47.3224 11.0647 47.6971 10.865 48.1049 10.7846C48.5127 10.7041 48.9351 10.7463 49.3189 10.9061C49.7026 11.0658 50.0303 11.3358 50.2605 11.6818C50.4907 12.0279 50.6131 12.4345 50.6122 12.8501C50.6128 13.1259 50.5589 13.3991 50.4535 13.654C50.3481 13.9088 50.1933 14.1403 49.9981 14.3351C49.8028 14.5299 49.571 14.6841 49.3159 14.7889C49.0608 14.8937 48.7875 14.947 48.5117 14.9457ZM53.0668 19.4766C52.6513 19.4766 52.2452 19.3534 51.8998 19.1226C51.5544 18.8918 51.2852 18.5637 51.1262 18.1799C50.9672 17.7961 50.9256 17.3737 51.0066 16.9663C51.0877 16.5588 51.2877 16.1846 51.5815 15.8908C51.8753 15.5971 52.2495 15.397 52.657 15.316C53.0644 15.2349 53.4868 15.2765 53.8706 15.4355C54.2544 15.5945 54.5824 15.8637 54.8132 16.2091C55.044 16.5545 55.1672 16.9606 55.1672 17.3761C55.1679 17.6521 55.114 17.9255 55.0086 18.1806C54.9033 18.4358 54.7486 18.6676 54.5534 18.8628C54.3583 19.0579 54.1265 19.2126 53.8713 19.318C53.6162 19.4233 53.3428 19.4772 53.0668 19.4766ZM53.0668 10.4246C52.6511 10.4246 52.2448 10.3013 51.8993 10.0703C51.5538 9.83926 51.2846 9.51093 51.1257 9.12683C50.9669 8.74274 50.9256 8.32015 51.007 7.91257C51.0884 7.50498 51.289 7.13072 51.5832 6.83716C51.8775 6.5436 52.2522 6.34393 52.66 6.26343C53.0677 6.18293 53.4902 6.22522 53.8739 6.38495C54.2577 6.54467 54.5854 6.81465 54.8156 7.16071C55.0458 7.50677 55.1682 7.91335 55.1672 8.32899C55.1679 8.60478 55.114 8.87797 55.0086 9.13283C54.9032 9.38769 54.7484 9.61918 54.5532 9.81397C54.3579 10.0088 54.1261 10.163 53.871 10.2678C53.6159 10.3726 53.3425 10.4259 53.0668 10.4246ZM57.7625 14.9457C57.3469 14.9457 56.9406 14.8224 56.595 14.5914C56.2495 14.3604 55.9803 14.032 55.8215 13.6479C55.6626 13.2639 55.6213 12.8413 55.7028 12.4337C55.7842 12.0261 55.9847 11.6518 56.279 11.3583C56.5732 11.0647 56.9479 10.865 57.3557 10.7846C57.7635 10.7041 58.186 10.7463 58.5697 10.9061C58.9534 11.0658 59.2811 11.3358 59.5114 11.6818C59.7416 12.0279 59.864 12.4345 59.863 12.8501C59.8636 13.1259 59.8097 13.3991 59.7043 13.654C59.5989 13.9088 59.4442 14.1403 59.2489 14.3351C59.0537 14.5299 58.8218 14.6841 58.5667 14.7889C58.3116 14.8937 58.0383 14.947 57.7625 14.9457Z" fill="#76808C"/>
<path d="M67.0034 28.7176C66.6396 25.3656 66.0333 22.1349 65.4172 19.1418C64.6944 15.6248 63.9619 12.5881 63.113 9.86187C62.6979 8.33221 62.0587 6.87242 61.2162 5.52994C60.9931 5.19522 60.7796 4.87505 60.571 4.55974L60.4061 4.31234C60.0617 3.78358 59.7027 3.24027 59.3389 2.71152C59.1441 2.43521 58.8989 2.1982 58.6161 2.01297C58.4662 1.74803 58.2669 1.51421 58.0291 1.32413C57.7657 1.1251 57.4769 0.961973 57.1705 0.839036C54.6138 -0.239183 51.7376 -0.279202 49.1518 0.727463C48.6134 0.92655 48.1744 1.32888 47.9294 1.84804C47.7228 1.89848 47.5113 1.92614 47.2987 1.93051H42.9329C42.6599 1.53129 42.2937 1.20467 41.8659 0.978975C41.4382 0.753277 40.9619 0.635308 40.4783 0.635295H26.7888C26.3052 0.635308 25.8288 0.753277 25.4011 0.978975C24.9734 1.20467 24.6072 1.53129 24.3342 1.93051H19.9683C19.7639 1.93139 19.5603 1.90695 19.3619 1.85774C19.1187 1.33612 18.6794 0.931641 18.1395 0.732314C15.5534 -0.279784 12.6742 -0.241487 10.116 0.839036C9.8103 0.960472 9.52297 1.12373 9.26218 1.32413C9.03427 1.51456 8.84066 1.74262 8.68976 1.99842C8.40411 2.18574 8.15709 2.42618 7.96212 2.70666C7.54008 3.31789 7.12775 3.94852 6.72997 4.55974L6.6378 4.69557L6.09449 5.52509C5.24674 6.86776 4.60418 8.32946 4.18805 9.86187C3.34398 12.6706 2.59208 15.683 1.88868 19.1369C1.2435 22.1397 0.622576 25.3802 0.258753 28.7273C0.0726215 30.3699 -0.0132384 32.0223 0.00165041 33.6754C0.00165041 36.0475 0.569215 38.0412 3.14024 40.1854C4.68264 41.3735 6.57789 42.0121 8.52483 41.9996C11.2123 41.9996 13.9337 40.85 15.0009 39.2734C16.0681 37.6968 16.9801 35.3101 17.7611 33.0496L17.8193 32.8701C18.2656 31.5603 18.7265 30.2069 19.1776 28.8583C20.5226 29.5541 22.0355 29.8597 23.5451 29.7406C25.0548 29.6214 26.501 29.0822 27.7202 28.184H39.5469C40.9467 29.2039 42.632 29.7572 44.3639 29.7655C45.6605 29.7613 46.9375 29.4487 48.0895 28.8535C48.429 29.8819 48.7831 30.9248 49.1276 31.9387L49.2488 32.288L49.5059 33.0447C50.2773 35.3053 51.1504 37.6241 52.2662 39.2734C53.3334 40.85 56.0596 41.9996 58.7422 41.9996C60.6696 42.0173 62.5477 41.3907 64.0783 40.2193C66.6881 38.0655 67.2363 36.0475 67.2605 33.6754C67.2788 32.019 67.1929 30.3632 67.0034 28.7176ZM26.6821 3.60895C26.6698 3.43723 26.7246 3.26744 26.835 3.13533C26.9454 3.00323 27.1027 2.91911 27.2739 2.9007H40.0174C40.1917 2.91314 40.3539 2.99417 40.4685 3.12603C40.583 3.25789 40.6406 3.42982 40.6286 3.6041V10.2645C40.6406 10.4388 40.583 10.6107 40.4685 10.7426C40.3539 10.8744 40.1917 10.9555 40.0174 10.9679H27.2739C27.1036 10.9495 26.947 10.8661 26.8367 10.735C26.7265 10.604 26.6711 10.4354 26.6821 10.2645V3.60895ZM62.6958 38.4245C61.567 39.2821 60.184 39.7379 58.7665 39.7197C56.535 39.7197 54.6674 38.7155 54.1774 37.9927C53.2072 36.5374 52.3292 34.1944 51.6889 32.3122L51.4803 31.6961C50.9952 30.2409 50.5101 28.8341 50.025 27.3982C49.9019 27.1068 49.7152 26.8466 49.4785 26.6368C49.2418 26.4269 48.9611 26.2727 48.657 26.1854C48.5807 26.1518 48.4979 26.1352 48.4145 26.1369C48.2387 26.1441 48.0694 26.205 47.9294 26.3116C46.9011 27.0772 45.6556 27.4952 44.3736 27.5049C43.026 27.4967 41.7211 27.0316 40.6723 26.1854C40.447 26.0116 40.171 25.9162 39.8864 25.9138H27.3806C27.0938 25.9165 26.8159 26.0137 26.5899 26.1903C25.5712 27.0143 24.306 27.4734 22.996 27.4945C21.686 27.5156 20.4066 27.0974 19.3619 26.3067C19.2209 26.2013 19.0525 26.139 18.8768 26.1272C18.7897 26.1247 18.7032 26.143 18.6246 26.1806C18.3228 26.2715 18.0456 26.4296 17.8137 26.643C17.5818 26.8564 17.4013 27.1196 17.2857 27.4127C16.7375 29.0572 16.17 30.7162 15.6218 32.3171C14.9815 34.2041 14.118 36.552 13.1333 38.0024C12.6482 38.7252 10.7757 39.7294 8.54423 39.7294C7.12102 39.7455 5.73311 39.2863 4.60038 38.4245C2.68424 36.8576 2.31072 35.5284 2.28646 33.6511C2.27285 32.089 2.35222 30.5274 2.52416 28.9747C2.88314 25.7052 3.49436 22.5375 4.09103 19.5978C4.77502 16.2312 5.51237 13.2624 6.33219 10.5216C6.69242 9.20287 7.24141 7.94314 7.96212 6.78149L8.51998 5.92772C8.94201 5.29224 9.37375 4.63251 9.81034 3.98732C9.90713 3.89869 10.0167 3.8251 10.1354 3.76903C10.262 3.70449 10.3719 3.61122 10.4561 3.49667C10.5403 3.38212 10.5966 3.24947 10.6205 3.1093C10.7123 3.04421 10.8116 2.99046 10.9164 2.94921C12.922 2.08573 15.1865 2.04393 17.2226 2.83279C17.2242 3.06695 17.3103 3.29265 17.4652 3.46827C17.6199 3.64745 17.8364 3.76177 18.0716 3.78843C18.6618 4.07031 19.3094 4.21145 19.9635 4.20077H24.4555V10.769C24.4567 11.3964 24.7066 11.9978 25.1502 12.4415C25.5939 12.8852 26.1953 13.135 26.8227 13.1363H40.5025C41.1295 13.135 41.7304 12.885 42.1733 12.4412C42.6162 11.9974 42.865 11.396 42.865 10.769V4.20077H47.3133C47.9729 4.21495 48.6264 4.07194 49.2197 3.78358C49.4493 3.75918 49.661 3.64815 49.8116 3.47312C49.9582 3.29083 50.034 3.0617 50.025 2.82794C52.054 2.04568 54.3084 2.08746 56.307 2.94436C56.4126 2.98366 56.5123 3.03754 56.6029 3.10445C56.6291 3.25165 56.6916 3.38998 56.7848 3.50689C56.878 3.6238 56.9989 3.71558 57.1365 3.77388C57.2508 3.83004 57.3555 3.90369 57.447 3.99218C57.8545 4.584 58.2571 5.19037 58.6404 5.78219L59.3146 6.78149C60.0307 7.94089 60.5763 9.19721 60.9349 10.5119C61.7401 13.1896 62.4775 16.1584 63.1809 19.5929C63.7824 22.5472 64.3888 25.7246 64.7429 28.965C64.9196 30.5173 64.9989 32.0792 64.9806 33.6414C64.9612 35.5284 64.5828 36.8576 62.6715 38.4245H62.6958Z" fill="#76808C"/>
<path d="M21.0196 33.1535V37.9891C21.0215 38.4626 21.2107 38.916 21.5458 39.2501C21.881 39.5842 22.3347 39.7718 22.8078 39.7718H27.6393C28.1124 39.7718 28.5661 39.5842 28.9013 39.2501C29.2364 38.916 29.4256 38.4626 29.4275 37.9891V33.1535C29.4275 32.6789 29.2391 32.2237 28.9038 31.8881C28.5684 31.5524 28.1136 31.3639 27.6393 31.3639H22.8078C22.3335 31.3639 21.8787 31.5524 21.5434 31.8881C21.208 32.2237 21.0196 32.6789 21.0196 33.1535Z" fill="#76808C"/>
<path d="M29.5677 33.1535V37.9891C29.5696 38.4626 29.7588 38.916 30.0939 39.2501C30.4291 39.5842 30.8828 39.7718 31.3559 39.7718H36.1874C36.6605 39.7718 37.1142 39.5842 37.4494 39.2501C37.7845 38.916 37.9737 38.4626 37.9756 37.9891V33.1535C37.9756 32.6789 37.7872 32.2237 37.4518 31.8881C37.1165 31.5524 36.6617 31.3639 36.1874 31.3639H31.3559C30.8816 31.3639 30.4268 31.5524 30.0915 31.8881C29.7561 32.2237 29.5677 32.6789 29.5677 33.1535Z" fill="#76808C"/>
<path d="M37.6952 33.1535V37.9891C37.697 38.4626 37.8862 38.916 38.2214 39.2501C38.5565 39.5842 39.0103 39.7718 39.4833 39.7718H44.3149C44.7879 39.7718 45.2417 39.5842 45.5768 39.2501C45.912 38.916 46.1012 38.4626 46.103 37.9891V33.1535C46.103 32.6789 45.9146 32.2237 45.5793 31.8881C45.2439 31.5524 44.7891 31.3639 44.3149 31.3639H39.4833C39.0091 31.3639 38.5542 31.5524 38.2189 31.8881C37.8836 32.2237 37.6952 32.6789 37.6952 33.1535Z" fill="#76808C"/>
<path d="M20.4949 33.477V33.1533C20.4977 32.5377 20.7435 31.9481 21.1788 31.5127C21.6141 31.0774 22.2037 30.8316 22.8193 30.8289H44.4607C45.0742 30.8384 45.6599 31.0864 46.0938 31.5203C46.5276 31.9541 46.7756 32.5398 46.7852 33.1533V37.7915C46.7852 38.0965 46.725 38.3985 46.6081 38.6802C46.4912 38.9619 46.3199 39.2178 46.104 39.4332C45.8881 39.6486 45.6318 39.8193 45.3499 39.9356C45.0679 40.0518 44.7657 40.1113 44.4607 40.1106H22.8087C22.5037 40.1113 22.2015 40.0518 21.9196 39.9356C21.6376 39.8193 21.3813 39.6486 21.1654 39.4332C20.9495 39.2178 20.7782 38.9619 20.6613 38.6802C20.5444 38.3985 20.4843 38.0965 20.4843 37.7915V37.4678M38.7452 37.3032C38.7466 37.6612 38.8898 38.0041 39.1435 38.2567C39.3971 38.5094 39.7405 38.6512 40.0985 38.6512H43.7549C44.1129 38.6512 44.4563 38.5094 44.71 38.2567C44.9636 38.0041 45.1068 37.6612 45.1082 37.3032V33.6415C45.1068 33.2835 44.9636 32.9407 44.71 32.688C44.4563 32.4354 44.1129 32.2936 43.7549 32.2936H40.0985C39.7405 32.2936 39.3971 32.4354 39.1435 32.688C38.8898 32.9407 38.7466 33.2835 38.7452 33.6415V37.3032ZM30.562 37.3032C30.5634 37.6612 30.7066 38.0041 30.9603 38.2567C31.2139 38.5094 31.5573 38.6512 31.9153 38.6512H35.5717C35.9292 38.6512 36.2721 38.5092 36.5249 38.2564C36.7777 38.0036 36.9197 37.6607 36.9197 37.3032V33.6415C36.9197 33.284 36.7777 32.9411 36.5249 32.6884C36.2721 32.4356 35.9292 32.2936 35.5717 32.2936H31.9153C31.5573 32.2936 31.2139 32.4354 30.9603 32.688C30.7066 32.9407 30.5634 33.2835 30.562 33.6415V37.3032ZM22.071 37.3032C22.071 37.6607 22.213 38.0036 22.4658 38.2564C22.7186 38.5092 23.0615 38.6512 23.419 38.6512H27.0807C27.4354 38.647 27.7742 38.5031 28.0236 38.2508C28.2729 37.9985 28.4128 37.658 28.4127 37.3032V33.6415C28.4127 33.4645 28.3779 33.2892 28.3101 33.1257C28.2424 32.9621 28.1431 32.8135 28.0179 32.6884C27.8928 32.5632 27.7442 32.4639 27.5806 32.3962C27.4171 32.3284 27.2418 32.2936 27.0648 32.2936H23.403C23.0455 32.2936 22.7027 32.4356 22.4499 32.6884C22.1971 32.9411 22.0551 33.284 22.0551 33.6415L22.071 37.3032Z" fill="#76808C"/>
</svg>
