<svg width="25" height="25" viewBox="0 0 25 25" fill="none" xmlns="http://www.w3.org/2000/svg">
<g clip-path="url(#clip0_447_3842)">
<path d="M16.6665 11.4585C18.3957 11.4585 19.7811 10.0627 19.7811 8.3335C19.7811 6.60433 18.3957 5.2085 16.6665 5.2085C14.9373 5.2085 13.5415 6.60433 13.5415 8.3335C13.5415 10.0627 14.9373 11.4585 16.6665 11.4585ZM8.33317 11.4585C10.0623 11.4585 11.4478 10.0627 11.4478 8.3335C11.4478 6.60433 10.0623 5.2085 8.33317 5.2085C6.604 5.2085 5.20817 6.60433 5.20817 8.3335C5.20817 10.0627 6.604 11.4585 8.33317 11.4585ZM8.33317 13.5418C5.90609 13.5418 1.0415 14.7606 1.0415 17.1877V18.7502C1.0415 19.3231 1.51025 19.7918 2.08317 19.7918H14.5832C15.1561 19.7918 15.6248 19.3231 15.6248 18.7502V17.1877C15.6248 14.7606 10.7603 13.5418 8.33317 13.5418ZM16.6665 13.5418C16.3644 13.5418 16.0207 13.5627 15.6561 13.5939C15.6769 13.6043 15.6873 13.6252 15.6978 13.6356C16.8853 14.5002 17.7082 15.6564 17.7082 17.1877V18.7502C17.7082 19.1147 17.6353 19.4689 17.5207 19.7918H22.9165C23.4894 19.7918 23.9582 19.3231 23.9582 18.7502V17.1877C23.9582 14.7606 19.0936 13.5418 16.6665 13.5418Z" fill="#76808C"/>
</g>
<defs>
<clipPath id="clip0_447_3842">
<rect width="25" height="25" fill="white"/>
</clipPath>
</defs>
</svg>
