<svg xmlns="http://www.w3.org/2000/svg" width="20" height="20" viewBox="0 0 20 20" fill="none">
  <g clip-path="url(#clip0_280_54)">
    <path d="M12.9167 11.6667H12.2584L12.025 11.4417C13.025 10.275 13.5417 8.68334 13.2584 6.99167C12.8667 4.675 10.9334 2.825 8.60003 2.54167C5.07503 2.10834 2.10837 5.075 2.5417 8.6C2.82503 10.9333 4.67503 12.8667 6.9917 13.2583C8.68337 13.5417 10.275 13.025 11.4417 12.025L11.6667 12.2583V12.9167L15.2084 16.4583C15.55 16.8 16.1084 16.8 16.45 16.4583C16.7917 16.1167 16.7917 15.5583 16.45 15.2167L12.9167 11.6667ZM7.9167 11.6667C5.8417 11.6667 4.1667 9.99167 4.1667 7.91667C4.1667 5.84167 5.8417 4.16667 7.9167 4.16667C9.9917 4.16667 11.6667 5.84167 11.6667 7.91667C11.6667 9.99167 9.9917 11.6667 7.9167 11.6667Z" fill="#4B619B"/>
  </g>
  <defs>
    <clipPath id="clip0_280_54">
      <rect width="20" height="20" fill="white"/>
    </clipPath>
  </defs>
</svg>