<svg width="19" height="19" viewBox="0 0 19 19" fill="none" xmlns="http://www.w3.org/2000/svg">
<g clip-path="url(#clip0_766_10367)">
<path d="M15.3823 10.276C15.414 10.0227 15.4377 9.76933 15.4377 9.50016C15.4377 9.231 15.414 8.97766 15.3823 8.72433L17.0527 7.41808C17.2032 7.29933 17.2427 7.08558 17.1477 6.91141L15.5644 4.17225C15.4694 3.99808 15.2557 3.93475 15.0815 3.99808L13.1102 4.78975C12.6986 4.47308 12.2552 4.21183 11.7723 4.01391L11.4715 1.916C11.4477 1.726 11.2815 1.5835 11.0836 1.5835H7.91691C7.71899 1.5835 7.55274 1.726 7.52899 1.916L7.22816 4.01391C6.74524 4.21183 6.30191 4.481 5.89024 4.78975L3.91899 3.99808C3.73691 3.92683 3.53107 3.99808 3.43607 4.17225L1.85274 6.91141C1.74982 7.08558 1.79732 7.29933 1.94774 7.41808L3.61816 8.72433C3.58649 8.97766 3.56274 9.23891 3.56274 9.50016C3.56274 9.76141 3.58649 10.0227 3.61816 10.276L1.94774 11.5822C1.79732 11.701 1.75774 11.9147 1.85274 12.0889L3.43607 14.8281C3.53107 15.0022 3.74482 15.0656 3.91899 15.0022L5.89024 14.2106C6.30191 14.5272 6.74524 14.7885 7.22816 14.9864L7.52899 17.0843C7.55274 17.2743 7.71899 17.4168 7.91691 17.4168H11.0836C11.2815 17.4168 11.4477 17.2743 11.4715 17.0843L11.7723 14.9864C12.2552 14.7885 12.6986 14.5193 13.1102 14.2106L15.0815 15.0022C15.2636 15.0735 15.4694 15.0022 15.5644 14.8281L17.1477 12.0889C17.2427 11.9147 17.2032 11.701 17.0527 11.5822L15.3823 10.276ZM9.50024 12.271C7.97232 12.271 6.72941 11.0281 6.72941 9.50016C6.72941 7.97225 7.97232 6.72933 9.50024 6.72933C11.0282 6.72933 12.2711 7.97225 12.2711 9.50016C12.2711 11.0281 11.0282 12.271 9.50024 12.271Z" fill="#76808C"/>
</g>
<defs>
<clipPath id="clip0_766_10367">
<rect width="19" height="19" fill="white"/>
</clipPath>
</defs>
</svg>
