<svg xmlns="http://www.w3.org/2000/svg" width="30" height="30" viewBox="0 0 30 30" fill="none">
  <g clip-path="url(#clip0_400_11675)">
    <path d="M7.5 23.75C7.5 25.125 8.625 26.25 10 26.25H20C21.375 26.25 22.5 25.125 22.5 23.75V11.25C22.5 9.875 21.375 8.75 20 8.75H10C8.625 8.75 7.5 9.875 7.5 11.25V23.75ZM22.5 5H19.375L18.4875 4.1125C18.2625 3.8875 17.9375 3.75 17.6125 3.75H12.3875C12.0625 3.75 11.7375 3.8875 11.5125 4.1125L10.625 5H7.5C6.8125 5 6.25 5.5625 6.25 6.25C6.25 6.9375 6.8125 7.5 7.5 7.5H22.5C23.1875 7.5 23.75 6.9375 23.75 6.25C23.75 5.5625 23.1875 5 22.5 5Z" fill="#76808C"/>
  </g>
  <defs>
    <clipPath id="clip0_400_11675">
      <rect width="30" height="30" fill="#F3F3F3"/>
    </clipPath>
  </defs>
</svg>