<svg xmlns="http://www.w3.org/2000/svg" width="28" height="28" viewBox="0 0 28 28" fill="none">
  <path d="M5.13831 3.5C4.38348 3.5 3.94102 4.35023 4.37269 4.96973L11.359 14.9548L4.34534 23.1533C3.89151 23.683 4.26747 24.5 4.96514 24.5H5.73988C6.08171 24.5 6.40688 24.35 6.62855 24.0898L12.7399 16.9303L17.3405 23.5042C17.778 24.1272 18.4916 24.5 19.2522 24.5H23.1419C23.8967 24.5 24.3392 23.6509 23.9075 23.0326L16.5361 12.4824L23.2171 4.65527C23.6044 4.20027 23.2812 3.5 22.6839 3.5H21.6972C21.3566 3.5 21.0325 3.64888 20.8108 3.90788L15.1621 10.5114L10.9603 4.49805C10.5239 3.87271 9.81147 3.5 9.04847 3.5H5.13831Z" fill="#76808C"/>
</svg>