<svg width="111" height="26" viewBox="0 0 111 26" fill="none" xmlns="http://www.w3.org/2000/svg">
<circle cx="13" cy="13" r="13" fill="white"/>
<path d="M18.0769 19L7 11.3692V19" stroke="black" stroke-width="2" stroke-linecap="round"/>
<path d="M7.92308 7L19 14.6308V7" stroke="black" stroke-width="2" stroke-linecap="round"/>
<path d="M34 21.04V4.86399H37.432L41.32 11.608C41.96 12.712 42.528 13.744 43.024 14.704C43.536 15.648 43.88 16.32 44.056 16.72L44.32 17.32C44.192 15.992 44.128 14.088 44.128 11.608V4.86399H47.176V21.04H43.72L39.784 14.32C39.16 13.264 38.592 12.256 38.08 11.296C37.584 10.32 37.24 9.61599 37.048 9.18399L36.76 8.51199C36.936 10.032 37.024 11.96 37.024 14.296V21.04H34Z" fill="white"/>
<path d="M53.5714 18.568H60.1714V21.04H50.5234V4.86399H60.0754V7.33599H53.5714V11.728H59.3554V14.176H53.5714V18.568Z" fill="white"/>
<path d="M67.4271 12.856L62.5311 4.86399H66.0591L69.1551 10.168C69.3791 9.73599 69.9071 8.79199 70.7391 7.33599C71.5871 5.86399 72.0591 5.03999 72.1551 4.86399H75.8271L70.9311 12.856L76.2351 21.04H72.6351L69.2031 15.448C68.9631 15.912 68.3871 16.896 67.4751 18.4C66.5791 19.888 66.0591 20.768 65.9151 21.04H62.2911L67.4271 12.856Z" fill="white"/>
<path d="M88.1764 14.848V4.86399H91.2004V14.824C91.2004 16.92 90.6324 18.52 89.4964 19.624C88.3764 20.712 86.8324 21.256 84.8644 21.256C82.9444 21.256 81.4084 20.72 80.2564 19.648C79.1204 18.56 78.5524 17.008 78.5524 14.992V4.86399H81.5764V14.968C81.5764 16.2 81.8804 17.096 82.4884 17.656C83.0964 18.2 83.8884 18.472 84.8644 18.472C87.0724 18.472 88.1764 17.264 88.1764 14.848Z" fill="white"/>
<path d="M103.469 5.53599V8.46399C102.269 7.74399 100.989 7.38399 99.6288 7.38399C98.8768 7.38399 98.2848 7.55199 97.8527 7.88799C97.4367 8.22399 97.2287 8.65599 97.2287 9.18399C97.2287 9.71199 97.4527 10.152 97.9007 10.504C98.3647 10.84 99.0527 11.216 99.9648 11.632C100.605 11.92 101.125 12.176 101.525 12.4C101.925 12.608 102.357 12.904 102.821 13.288C103.301 13.672 103.653 14.136 103.877 14.68C104.117 15.208 104.237 15.816 104.237 16.504C104.237 17.944 103.717 19.096 102.677 19.96C101.653 20.808 100.301 21.232 98.6208 21.232C96.7967 21.232 95.2848 20.888 94.0848 20.2V17.104C95.4608 18.096 96.9647 18.592 98.5967 18.592C99.3327 18.592 99.9248 18.416 100.373 18.064C100.821 17.696 101.045 17.208 101.045 16.6C101.045 16.312 100.989 16.056 100.877 15.832C100.765 15.608 100.533 15.384 100.181 15.16C99.8447 14.936 99.5807 14.776 99.3887 14.68C99.2127 14.584 98.8367 14.408 98.2607 14.152C98.1007 14.072 97.9808 14.016 97.9007 13.984C97.3088 13.712 96.8288 13.472 96.4608 13.264C96.0928 13.04 95.6927 12.744 95.2607 12.376C94.8288 12.008 94.5007 11.568 94.2767 11.056C94.0687 10.544 93.9647 9.95999 93.9647 9.30399C93.9647 7.92799 94.4688 6.82399 95.4767 5.99199C96.5007 5.15999 97.8528 4.74399 99.5328 4.74399C101.053 4.74399 102.365 5.00799 103.469 5.53599Z" fill="white"/>
<path d="M110.237 6.74119C110.237 7.97501 109.307 8.74399 108.24 8.74399C107.169 8.74399 106.237 7.97501 106.237 6.74119C106.237 5.5078 107.169 4.74399 108.24 4.74399C109.307 4.74399 110.237 5.5078 110.237 6.74119ZM106.573 6.74119C106.573 7.77339 107.32 8.42175 108.24 8.42175C109.156 8.42175 109.901 7.77339 109.901 6.74119C109.901 5.70597 109.156 5.06752 108.24 5.06752C107.323 5.06752 106.573 5.71372 106.573 6.74119ZM108.268 5.72062C108.785 5.72062 108.959 5.99288 108.959 6.28712C108.959 6.5568 108.799 6.73774 108.603 6.82993L109.067 7.69455H108.687L108.296 6.92816H107.892V7.69455H107.576V5.72062H108.268ZM107.895 6.63909H108.248C108.476 6.63909 108.611 6.49649 108.611 6.31728C108.611 6.13634 108.514 6.02002 108.247 6.02002H107.895L107.895 6.63909Z" fill="#F3F3F3"/>
</svg>
